<svg xmlns="http://www.w3.org/2000/svg" viewBox="0 0 1904.07 2625.97"><defs><style>.cls-1{isolation:isolate;}.cls-13,.cls-2,.cls-6{fill:#bababc;}.cls-3,.cls-4{fill:#e7c8c8;}.cls-13,.cls-4,.cls-6,.cls-9{mix-blend-mode:multiply;}.cls-5{fill:#fffaf7;}.cls-6{opacity:0.4;}.cls-7{fill:#7a817e;}.cls-8,.cls-9{fill:#ddba58;}.cls-10{fill:#324e5e;}.cls-11{fill:#fff;mix-blend-mode:screen;}.cls-12{fill:#979698;}.cls-14{fill:#da9ca2;}</style></defs><g class="cls-1"><g id="Layer_1" data-name="Layer 1"><path class="cls-2" d="M380,216.78c-3.43-5.16-7.22-10.08-11.07-14.89-.3-2.25-.56-4.47-1-6.73-.46-2.43-2.8-1.22-4.23.54-31.71-36.35-75.47-62-116.91-85.55C196.42,81.48,141.81,54,84.67,42.25c-104.13-21.42-31.47,172.11-18.24,211,19.17,56.31,81.57,261.62,174,202.11,37.72-24.24,62-74.65,82.07-112.79C344.74,300.39,371.8,261,370,213.39c2.34,2.18,4.79,4.27,7.08,6.49C378.28,221.05,380.83,218,380,216.78Z" transform="translate(-29.45 -40.6)"/><path class="cls-3" d="M315.78,340.84c-21.73,38.8-49.47,105.49-98.74,116.38-44.56,9.91-76.78-60-92.7-90.3-20.29-38.64-35.54-79.57-50-120.66-16-45.52-29.26-91.95-36.21-139.73A111.14,111.14,0,0,1,37.74,77c3.1-35.57,32.61-30.41,53-26.19,20.61,4.26,40.8,12.81,60.13,20.83C229,104,300.89,150.36,363.14,207.1,365.11,257,339.74,298.09,315.78,340.84Z" transform="translate(-29.45 -40.6)"/><path class="cls-4" d="M126.84,334.44C88,258.09,61.61,180,50.25,89.86,50,88.1,52.66,64.87,58,65.49,89.7,63.2,146.76,85.42,173.88,93.63c35.94,10.88,71.7,39.53,100.63,61.63,1,.8-29-4-38.73.83-.38.16-.71.3-1.09.44,1-.06,1.75-.14,2.92-.17,12.31-.36,38.91,6.95,36.31,8.15-16.67,7.67-27.27,12.87-39.75,23.41.62-.15,1.17-.28,1.88-.49,6.63-2,57.74-9.88,65.73,5.62.74,1.47-70.85,19.12-54.83,20,20.35,1.14,62.05,0,77.69,10.79,8.45,5.8,8,47.48,2.65,96.47,19.88-35.66,37.49-71.36,35.85-113.23C300.89,150.36,229,104,150.84,71.62c-19.33-8-39.52-16.57-60.13-20.83-20.36-4.22-49.87-9.38-53,26.19a111.14,111.14,0,0,0,.42,29.55c7,47.78,20.17,94.21,36.21,139.73,14.43,41.09,29.68,82,50,120.66,15.49,29.48,46.37,96,89,90.76C208,452,203.45,446.57,200,442.23,175.21,411.38,145.16,370.45,126.84,334.44Z" transform="translate(-29.45 -40.6)"/><path class="cls-2" d="M745.71,219.88c2.31-2.22,4.74-4.31,7.08-6.49C751,261,778,300.39,800.26,342.58c20.09,38.14,44.4,88.55,82.09,112.79,92.43,59.51,154.81-145.8,174-202.11,13.26-38.9,85.89-232.43-18.27-211C981,54,926.37,81.48,876,110.15c-41.44,23.54-85.17,49.2-116.89,85.55-1.47-1.76-3.78-3-4.25-.54-.45,2.26-.71,4.48-1,6.73-3.88,4.81-7.64,9.73-11.06,14.89C742,218,744.5,221.05,745.71,219.88Z" transform="translate(-29.45 -40.6)"/><path class="cls-3" d="M759.62,207.1C821.9,150.36,893.75,104,971.91,71.62c19.35-8,39.58-16.57,60.16-20.83,20.34-4.22,49.86-9.38,53,26.19a109.9,109.9,0,0,1-.45,29.55c-6.89,47.78-20.16,94.21-36.18,139.73-14.45,41.09-29.69,82-50,120.66-15.93,30.33-48.15,100.21-92.7,90.3-49.26-10.89-77-77.58-98.76-116.38C783,298.09,757.67,257,759.62,207.1Z" transform="translate(-29.45 -40.6)"/><path class="cls-4" d="M996,334.44c38.84-76.35,65.22-154.4,76.56-244.58.24-1.76-2.39-25-7.75-24.37C1033.08,63.2,976,85.42,948.89,93.63c-35.91,10.88-71.72,39.53-100.62,61.63-1,.8,29.06-4,38.73.83.37.16.71.3,1.09.44-1-.06-1.75-.14-2.93-.17-12.32-.36-38.9,6.95-36.3,8.15,16.67,7.67,27.27,12.87,39.76,23.41-.63-.15-1.17-.28-1.86-.49-6.66-2-57.77-9.88-65.76,5.62-.74,1.47,70.85,19.12,54.83,20-20.34,1.14-62.05,0-77.7,10.79-8.45,5.8-8,47.48-2.65,96.47C775.61,284.67,758,249,759.62,207.1,821.9,150.36,893.75,104,971.91,71.62c19.35-8,39.58-16.57,60.16-20.83,20.34-4.22,49.86-9.38,53,26.19a109.9,109.9,0,0,1-.45,29.55c-6.89,47.78-20.16,94.21-36.18,139.73-14.45,41.09-29.69,82-50,120.66-15.49,29.48-46.37,96-89,90.76,5.31-5.71,9.89-11.11,13.36-15.45C947.56,411.38,977.59,370.45,996,334.44Z" transform="translate(-29.45 -40.6)"/><path class="cls-2" d="M759.08,1885.15c-1.22,21.78-8.53,57.25-31.19,66.26-1.5.59-4.43,5-1.23,4.93,27.9-.78,35.36-52.8,35.21-72.57C761.87,1882.09,759.14,1884,759.08,1885.15Z" transform="translate(-29.45 -40.6)"/><path class="cls-2" d="M758.83,2043.8c.17-2.59-3.07-.35-3.29,1.18-3.64,24.79-6.78,48.58-8.14,72.28-3.47-24.89-8.25-47.3-7.58-73.7.74-29.51,10.43-56.83,17-85.27.42-1.76-2.16-.5-2.46.57C737.48,2017.35,724.79,2069,743,2129.1c.53,1.8,2.48.74,3.92-.87-.76,24.33.61,48.74,5.88,74.27.77,3.73,5.65-.92,5.47-3.34-2-26.54-5.79-51.75-6.14-78.48C751.81,2094.89,757,2069.37,758.83,2043.8Z" transform="translate(-29.45 -40.6)"/><path class="cls-2" d="M765.13,2173.64c-.09-1.73-2.69.24-2.72,1.32-1.87,38.42-3.94,74.12-18.8,110-1.1,2.7,2.16,2.49,3.34.89C769.6,2255.34,766.88,2209.65,765.13,2173.64Z" transform="translate(-29.45 -40.6)"/><path class="cls-2" d="M1168.17,2268.9a190.57,190.57,0,0,1-32.33-1.24c-23.3-15.22-40.77-33.49-53.73-58.89-5.57-10.8-10-26.54-11.88-42.88a106.44,106.44,0,0,1-4.59-28.07c-2.69,18.72.24,39.6,2.94,55.78,4.26,25.43,20,51.1,41,67.92-19.54-7-35.91-19.78-41.51-41.7-.44-1.72-2.84.35-2.57,1.55,6.63,31.53,36,49,66.49,53.46,1.28.53,2.49,1.24,3.77,1.71a3.12,3.12,0,0,0,2.63-.94,102.56,102.56,0,0,0,27.86-1.22C1168.32,2274,1171.67,2268.73,1168.17,2268.9Z" transform="translate(-29.45 -40.6)"/><path class="cls-2" d="M1244.29,2289.11c.83-1,1.19-2.12.77-2.89a.89.89,0,0,0-.59-.63c-.06,0,0-.06-.09-.06-24.45-6-54.59-9.93-65.93-36.51-.65-1.51-3.26,1.07-2.73,2.42,8.92,21.94,30.88,34.22,53.53,38-16.31,3.27-32.15,1.42-47.63-7.77-1.42-.82-3.82,2.17-2.46,3.06,19.89,13,41.36,13.89,63.42,6,.26-.08.44-.37.68-.56a7,7,0,0,0,.62-.55A2.49,2.49,0,0,0,1244.29,2289.11Z" transform="translate(-29.45 -40.6)"/><path class="cls-2" d="M1594.16,2030.67c-14.12-10.69-24.54-32.05-29.9-50.32a125.64,125.64,0,0,1-6.93-26.58c12.11-15.53,15.34-34.75,15.16-55.18,0-3.54-.09-7.56-.18-11.77a88.37,88.37,0,0,0,6.93-26.72c14.66-23.48,15-50.91,11.16-78.47-2.63-19.1-9.68-37.26-17.73-54.57a87.85,87.85,0,0,0-7-11.93c.45.18.86.52,1.36.68a20.12,20.12,0,0,0,10.66,2.53c.06,0,.12-.09.18-.12a39.27,39.27,0,0,0,8.53,0c-18.72-7.39-31.92-25.51-39.09-45.67-7.66-18.39-12.13-39.4-15.39-55.47,1.51-1.5,2.81-3.47,2.93-4.53,4.83-43.91-4.32-82.83-22.74-117.63a248.1,248.1,0,0,0-47.61-91.49c-.35-.41-.74-.77-1.06-1.2,2-6.61-.77-13.41-4-19.61a3.3,3.3,0,0,0,.59-2c-4.82-30.19-21-55.74-43.64-75.85-6.6-5.87-13.26-11.06-19.84-16,0,0,0-.06,0-.12-21.77-29.44-33.7-67.09-54.75-97.57a3.83,3.83,0,0,0,.42-1.87,84.76,84.76,0,0,0-9.39-29.08,4.24,4.24,0,0,0,.62-1.87c-.94-49.55-44.29-93.34-89.44-109.07a73.17,73.17,0,0,0,10.75-2.62c2.69.23,5.47.32,8.35.29a4.76,4.76,0,0,0,3.22-2.2c-8.79-2-17.35-4.09-25.13-8.19a91.58,91.58,0,0,1-26.06-11.49c1.81-1.25,3.55-3.65,3.26-5.19a105.48,105.48,0,0,0-11.58-29.45,4.69,4.69,0,0,0,1.39-3.3c-6.18-50.6-47.69-85-90.36-107.81,10.54,1.36,21.14.86,30.68-4.07a103,103,0,0,1-15.16-10.87c-18-5.63-35.53-11.8-52-21.67-1.16-.7-2.22-1.47-3.38-2.22,1-.17,1.93-1.72,1.27-2.49-22.88-28.23-23.15-62.65-31-96.61-6.37-27.64-20.17-50.7-34.67-74.48h-.06a110.13,110.13,0,0,0,2.63-14.64,64.15,64.15,0,0,0-9.56-40.27c9-11.85,9.12-27.71,7.78-42.62,15.55-21.33,6.19-59.86,1.63-82.75-7.78-38.83-30.23-66.17-59.94-88.23a77.67,77.67,0,0,0,23.35.62,50.94,50.94,0,0,0,18.8.11,6.22,6.22,0,0,0,2.87-2.34A140.54,140.54,0,0,1,976.16,385c-14.41-6.34-26.71-15-39.79-27.21-4-3.7-7.91-7.55-11.8-11.37-6.4-17-13.52-33.8-22.85-49.39,1.8-1,3.65-3.83,3.13-5.49-14.58-47.19-52.51-88.46-99.75-103.34,1.67-.59,3.26-1,5-1.66,7.84-3.09,17.18-7.79,22.7-14.88-7.31.31-14.61-.25-20.72-2.6-45.54.56-83.37-21.47-128.91-30.07a229.75,229.75,0,0,0-53.35-3.68c-.21-.43-.25-.94-.83-1.16-19.51-7.5-44.29-9.56-64.87-4.65-11.61,2.77-21.7,6.56-31.55,13.15,8.71-5.83,20.8-16.2,33.19-21.78a8,8,0,0,0,3-3.4,178.27,178.27,0,0,1-19.31-1.34C524,121.64,495.91,140.19,486.65,164c-8-6.91-13.68-16.37-17.32-26.94a98.83,98.83,0,0,1-9.3-19c-3.94,15.33-5.69,29.51-1.1,43.26a78.22,78.22,0,0,0-47.07-5.27,152.71,152.71,0,0,0-14.54,11.66c11.27,2,44.29,9.09,15.28,9.17-17.1.06-39.32,18-52.67,26.6-30.63,19.61-55.22,45.86-74,76.48a161.49,161.49,0,0,1-34.05,21.33,5,5,0,0,1-2.37,1.55c-1.24.39-2.53.67-3.79,1a139.08,139.08,0,0,1-26.32,7.76A140.68,140.68,0,0,1,176.16,321c8.63,10,22.11,15,35.61,15.66-29.93,15-55.36,46.35-64.93,76.09-.78,2.44.89,3.57,3,2.47,9.27-4.78,15.31-11.49,23.78-17.84a126.67,126.67,0,0,1,13.45-8.66c-15.46,15.93-26.76,35.52-35.8,56.79-7.91,18.55-11.57,38.4-14.78,58.21-5.7,34.85-18,62.34-40.15,87.43a57.25,57.25,0,0,1-9.65,12.92c-.93.89-2,1.63-3,2.47.24.83,1,1.25,2.37.12.56-.44,1-.93,1.57-1.39,17.79-5.83,31.86-21.48,44.23-35.87C114,603.91,98.72,638.46,98.6,676.2A333.27,333.27,0,0,0,111.4,715a4.3,4.3,0,0,0,.58-1.68c.11-28.46,11.59-54.81,22.73-79.93C126,653,116,683.53,118,705.32c4.3,46.5,25.84,85.93,62.67,113.84,12.29,17,11.63,40.07-11.13,50.74-.93.46-3.4,2.88-1.83,3.94,9.78,6.78,23.74,2.62,33.1-3.17,17.56-10.92-3.61,10.1-7.4,14.93a299.27,299.27,0,0,0-29.37,44.33c-25,46.26-30.35,120.37-4.09,168.84.65,23.27,6.13,45.67,19.66,63.64,2.4,3.23,6.63.09,8.41-3.14,9.06,54.37,40.29,105.12,59.73,155.9.16.41.49.4.75.49a470.76,470.76,0,0,0,18.27,71.48C286,1443.28,311.19,1497,332,1552.59c45.45,121.54,85.36,247.85,46.13,376.69-.6,1.85.32,2.21,1.42,1.85-.71,2.32,2,2.71,3.67.83,15.57-16.82,25.12-38,32.09-59.78,2,28,9.18,57,9.82,84.32,1.21,53.59-12.29,100.17-33.15,149-.32.09-.71.31-1,.4-1.48.31-4.7,3-3.32,4.81l1.1,1.42a1.87,1.87,0,0,0,1.89.95c12.29-1.63,21.66-18.79,27.64-28a93.79,93.79,0,0,0,9.31-20.07c-3.82,18.89-7.52,37.82-12,56.59a393.67,393.67,0,0,1-24.52,71.34c-8.74,19.68-22.3,35.9-31.88,54.94-.71,1.42-1.42,5.09,1.42,4.6,16.13-2.66,31.09-13.57,42.66-27.34a223.29,223.29,0,0,0-10.95,42.47c-5.21,34.78-1.81,71,13.93,102.53a70.48,70.48,0,0,0-21.48,51.3c-.18,39.91,43.49,50.65,75.35,42.93,17.79,12.18,40.89,9.31,60.22,2.47a3.32,3.32,0,0,0,1.21-1.16c12.82,5.13,29.11,4.19,44.09-1.89,25.52-2.81,52.2-12.29,69.92-31.64,10.94-11.93,20.28-26,27.94-40.26a33.51,33.51,0,0,0,3.07-8.31.29.29,0,0,0,.18-.12c4.17-1.08,8.2-3.21,12.67-3.33a41.56,41.56,0,0,1,5.55.3c2.06.19,3.67,1.64,5.6,2,2.57.44,3.95,1.21,6.08.86-9.1,13-11,30.08-12.3,45.62-2.93,35.09,31.63,34.75,55.94,26.28a27.32,27.32,0,0,0,7.65,5.76c13.4,6.69,35.62,4.9,48.93-.89.15-.09.36-.33.53-.46,21,6.72,53.53-4.41,73.93-13.2a2.15,2.15,0,0,0,1.45.26c29.26-3.83,48-33,60.14-57.05a129,129,0,0,0,6.39-15.74c.3,0,.56.06.86-.13,36.24-26.79,86.16-12.5,126.39-6.59a3,3,0,0,0,2-.62,13.59,13.59,0,0,1,2.22,2.21,20.72,20.72,0,0,0,3.67,11.19c5.18,7.33,16,8.82,24.1,10.4a62.89,62.89,0,0,0,29.52-.8c14.18,5.72,26.2,5.75,40.89.29,8,2.93,17.94,2.59,26.64,1.42,48.79,10.29,106.65,8.07,150.79-15.21,17.41-9.16,41.92-30.18,44.53-52.49,29.55-8.69,49.33-52.54,53.2-82.09a120.52,120.52,0,0,0,19.46-18.87c29-6.14,51.57-38.82,61.28-72.42,17.38,4.28,31.3-28.29,36.63-40.71,10.66-24.66,17.47-59.23,9.35-87.36,6.64,5.16,13.74,8.66,20.85,9.48A3.92,3.92,0,0,0,1594.16,2030.67Z" transform="translate(-29.45 -40.6)"/><path class="cls-5" d="M1526.51,2143.86c4.12-17.34,4.83-34.39,1.1-47.64-.54-1.85-3.11.41-2.82,1.73,3.14,15.56,1.37,32.47-3.87,48.72a3.32,3.32,0,0,0-.33.92c-8.85,26.62-27.18,51.2-49.39,64.7,12.44-18.56,19.93-40.29,20.08-61.67,0-1.65-2.55.24-2.64,1.28-3.55,42.33-33.33,78.28-71,95.83q-4.12,5.82-8.4,11.52a101.51,101.51,0,0,0,32.39-16.09c-6.31,29.07-23.42,62.61-50.6,75.62a32,32,0,0,0-6.66-18.79c-1.1-1.45-3.29,1-3.05,2.25,16.84,93-128.79,81-186.44,79.47-6.45-1.22-12.94-2.42-19.33-4.18-14.48-4-9-25.19-5.87-34.87,5.54-16.67,17.06-24.16,33.7-27.47,10.92-2.19,22.26-.2,32.71-4,.83-.29,3.14-3.27,1.25-3.52-31.92-4.37-62.77-1.53-76.15,32-4.5,11.32-9.71,27.27-4.39,39.24a18.82,18.82,0,0,0,2.52,4.09,68.18,68.18,0,0,1-20.19-1.73c0-.95-.47-1.6-2-1.38-.66.08-1.31.08-1.93.19a34.87,34.87,0,0,1-16.4-11.75c-16.85-22.29,5.45-48,25-57.35,1.12-.5,2.72-3.67.41-3-23.33,6.56-39.52,26.72-39.35,51.12a31.9,31.9,0,0,0,9.57,22,82.26,82.26,0,0,1-25.47-4.78c-21-7.63-4.08-36.39,3.47-48.48,1.09-1.78-.86-2.08-1.93-1-7.67,8.16-17.32,21.93-19.48,35a1.71,1.71,0,0,0-.92-1.32c-23.33-11.24-55.84-13.21-81.45-10.08-6.6.81-49,7.81-47.34,19a.68.68,0,0,0-.5-.64c5.55-18.12,7.76-37.66,7.64-57a4.67,4.67,0,0,0,1.29-.94c19.79-24.67,33.6-47.42,41.76-78.06,1.33-2,2.34-4.13,3.56-6.15-2.65,13.88-1.88,30.06,4.31,42.11a4.72,4.72,0,0,1,4.09,2.5,41.28,41.28,0,0,0,10.12,11.86,3.66,3.66,0,0,0,2.37-.49c.59,1.12,1.34,2.23,2,3.36a31.15,31.15,0,0,0,12.61,3.54,2,2,0,0,0-.27-1c-5.71-9.85-11-17.68-12.25-29.39-1.63-15.33,4.14-32,11.84-44.87,1.24-2.1-1.25-2.07-2.25-.59-10.84,16.51-18.63,36.42-16,55-23.57-35.06,2.25-89.53,32.36-113,1-.74,1-3.07-.62-2.08-13.71,8.65-24.1,21.6-32.39,35.71a222.28,222.28,0,0,0,6-28.11c36.36-71.43,50.51-155.08,26.14-233.05-.41-1.28-2.66.77-2.43,1.8,17.32,74.27,4.12,145.42-21.88,214.55,2.4-29.15,1.28-58.92,1.43-86.1,0-1.68-2.61.27-2.73,1.35-4.08,49.59-4.91,97.39-20.12,143.55,1.56-12.55,1.71-25.37-2-34.82-.54-1.37-2.82.88-2.58,1.9,3.52,14.4-2.87,38.63-5.14,53-.43,2.83-1.11,5.58-1.74,8.3-.77,1.62-1.34,3.25-2.15,4.81s-.47,2.31.12,2.85c-7.26,24.1-21.35,45.37-35.65,66a290.56,290.56,0,0,0-3.4-36.47c-.36-2.44-3.53.67-3.5,2.15.34,59.22-3.57,141.55-66.94,168.35a3.55,3.55,0,0,0-1,.81c-26,8.35-66.17,21.42-82.84-3.63-21.11-31.69,16.91-60.08,39.66-74.61,1.41-.88,2-4-.32-2.82-31.73,16.24-58.17,36.61-52.17,76.18,1.33,8.76,4.91,14.81,9.89,18.94-17.12-.16-37.37-2.87-44.37-18.8-13.8-31.59,5.57-65.19,34.24-79.25,1-.48,1.81-2.92,0-2.46-26.53,7.3-49.18,36.24-48.13,64.25.4,11.26,1.43,23.37,7.18,32.52-18.45,2-39.56,3.06-44-19.42-8.22-42,28.46-64.38,59.66-81.14,1.19-.64,2.2-4,.05-3.17a202.17,202.17,0,0,0-33.55,17c1.71-3.87,2.9-8,4.36-11.95,4.22-11.56,12.07-21.26,18.79-31.41,6.9-10.44,17-25.26,16.55-38.36a.41.41,0,0,0-.21-.33l2.59-4.57a61.63,61.63,0,0,0,6.74-17.38c1.42-6.23,4.08-12.49,2.1-18.76-.39-1.3-2.52.79-2.35,1.72,1.49,8.23-5.94,26.19-10.32,32.51-6.16,8.87-11.11,15.56-20.08,21.89-1.09.8-4.27,5.94-.71,5.48,7.35-1,12.88-6.72,17.31-13.2-13,24.47-40.16,47.93-38.12,76.47l0,0a109.3,109.3,0,0,0-13.15,10.44c-.65.59-1.15,1.27-1.77,1.94-3.53-6.35-11.91-6.57-18.33-6.53-5.86,0-10.1,2.65-14.71,5.12.65-8-.51-16.05.68-24.63.31-2.46-2.86-.53-3.26.77-2.31,6.94-2.78,12.8-3.21,20.22-.89,15.78-12.88,27.88-21.07,40.12-17.85,26.72-47.58,37.17-77,45.77-.12,0-.28.24-.44.31-19.56,2.43-43-1.23-52.7-19.5-5-9.38-2.93-24.76-2-34.68,1.22-13.47,8.41-23.61,18.41-30.72,2.17-3.09,4.48-6.08,7-9-26.14,8.94-36.54,36.18-35.77,63.85.45,16.57,7.55,27.56,17.94,33.66-25.46,1.31-48.08-2.23-64.64-24.1-14.15-18.68-2.49-39.37,10.82-54.58,1.12-1.89,2.28-3.73,3.46-5.45a125,125,0,0,1,15.73-19.17c-2.27,1.65-4.27,3.23-5.73,4.36-15.4,11.77-37.49,30.39-40.11,51.23-2.25,18.17,5.14,32.1,18.09,44-21.48-.15-43.15-6.26-55-25.85-15-24.87-1.38-45.21,17-61.66a94.08,94.08,0,0,1,14.36-18.75,98.48,98.48,0,0,0-17.77,11.34c-7.84-38.86-15-70-9.89-110.81,3-23.49,23.05-48.91,22.18-72-.08-2.22-3.35.37-3.44,1.66a17,17,0,0,1-.5,2.41,5.18,5.18,0,0,0-1.94,2.13c-6.32,16.91-14.82,26.74-25.84,39.35-20.48,23.44-21.32,11.77-13.08-.9,13.33-20.47,23.3-42.35,31.95-65.15,17.65-46.46,21.61-96.64,28.93-145.24.26-1.89-2.28-.52-2.58.58-1.57,6.3-2.95,12.66-4.35,19,0,0,0-.12-.06-.18-.62-1.07-2.18.81-1.87,1.67,2.93,8.47-11,29.19-13.62,35.66-3.13,7.7-11.48,23.2-20.93,30,20.93-41.58,34.91-83.71,37.16-130.53,1.89-39.31-7.85-76.64-14.86-114.44.38-1.46.83-3,1.21-4.42.47-1.84-1.29-1.32-2.06-.27-.5-2.81-1.05-5.62-1.51-8.44-.19-1.23-1.79.23-1.83.89a144.84,144.84,0,0,0-.46,17.84,284.14,284.14,0,0,1-13,32.26c-4.83,9.8-11.81,19-18,28.3,41.15-106.27,8.41-228.83-26.78-331.92-20.8-61-47.09-119.56-70.36-179.57-24-61.79-36.33-123-44.09-188.6-.14-1.26-1.85.33-1.85,1.12a560.57,560.57,0,0,0,3.79,64.52c-10.7-29.18-24.13-57.25-35.66-86.17a231.54,231.54,0,0,1-15.72-62.92,210.18,210.18,0,0,1-7.2-51.57c-6.95,17-6.7,33.51-6.48,50.86a109.18,109.18,0,0,1-9-30.45c1.1-1.17,1.84-2.87,1.33-4.06-.95-2.16-1.67-4.35-2.53-6.52-1.23-15.37-.24-31.31,1.73-46.68-.41-11.74.94-23.43,2.46-35.17A278.94,278.94,0,0,0,161,1073.62c-8.86-33.67-9.12-68.07-2.43-103.48,5.53-29.55,20.23-57.91,39.26-81a70.73,70.73,0,0,0,11.48-19c-.36-4-.73-7.94-.84-11.89q-13.55,16.21-33.78,15c2.5-.37,8.45-4.59,8.19-4.45,5.41-3.15,9-13.21,11.39-18.46,6.76-14.59,3.51-23.73-5.07-31.35,0-.06,0-.15-.08-.19-23.65-21.85-43.39-44.74-55.21-75-13.39-34.27-8.38-68.23,2.66-101.53,1-6.63,2.28-13.23,3.07-19.89-16.57,15.31-26,43-30.93,68.26-2.61-23.73-1.94-45.73,5.36-70.9,6.28-21.67,18.33-43.15,28.66-64.47a222.44,222.44,0,0,0,13.71-22.57,271.09,271.09,0,0,0,7.84-28.51c-6.35,14-14.83,27.27-22.8,40-9,14.34-18.94,27.81-31,38.47A139.41,139.41,0,0,0,133.11,544c14.42-37.48,14-77.75,31.38-114.74a134.61,134.61,0,0,1,20.24-30.93,157.23,157.23,0,0,1,18.13-24.94l-.21-.14A79.61,79.61,0,0,0,192,379.33c-11.58,6.78-9.48,5.46-20.51,13.75-6.41,4.81-25.85,19.84-7-3.83,11.4-14.39,9-16.3,22.34-28.95l8.21-6.58a39.79,39.79,0,0,0,19.09-16.17,50.08,50.08,0,0,0,2.38-6.9,56.45,56.45,0,0,1-26.44-7.83c30.93,3.7,60-7,84.85-25.09A130,130,0,0,0,292.81,280c7.09-8.75,13.44-17.86,20.4-26.52-2.64,3-5.27,6-8,8.81,10.42-14.82,22-28.63,37-39.11,17-11.84,33.22-24.65,52.26-33.23a44,44,0,0,1,11-3.29c10.54-3.94,21.44-7.06,32.33-10.72-.25-.32-.44-.68-.71-1a4,4,0,0,1-2.2-2.16c-5.48-4.81-13.78-7.86-21.63-9.86a74.83,74.83,0,0,1,35.45,3.36,135.86,135.86,0,0,1,23.5,5.72,2.82,2.82,0,0,0,0-2.71,54.73,54.73,0,0,1-10-37.14c-.15,7.13,2.19,13,7,21.49a45,45,0,0,0,13.32,14.45,60.74,60.74,0,0,0,7.43,1.08c.43-.58.77-1.2,1.2-1.78-.34-.22-.72-.39-1-.63C499.26,142.54,528,126.26,553,122.1c-11.5,7-21.33,15.31-28.44,28.05-1.48,2.67.77,4.55,3.05,2.46,22.11-19.81,55.32-22.47,83.79-15.75a219,219,0,0,0-50,12.42c-1.15.44-2.38,3.4-.35,2.8l3.4-1c.24-.07.66-.62.27-.77,10.36,4,35.11-5.42,48.59-5.17,28.89.54,57,.7,85.22,7.78C742.66,164,780,182.11,825.17,172.18c-7.49,6.85-17.63,11.21-28.28,13.72a131.21,131.21,0,0,0-22.17-3.45c8.31,3.08,16.7,6,24.52,10.44,1,.55,1.88,1.14,2.84,1.69,40.59,16.34,72,50.26,91.56,89.84C880,265.8,861.8,255,841.87,243.67c-.83-.46-2.2,1.23-1.42,1.77,20,13.19,36.09,25.75,50.3,45.47,9.6,13.35,16,28.76,22.12,44.15-12.31-11.91-25-23.53-39.41-32.46-.05,0-.08,0-.11,0,1.08,2.38,2.14,4.77,3.31,7.12,24,22.46,50.78,63.61,82.56,81.41a99.77,99.77,0,0,1-19.58-4.3,3.07,3.07,0,0,1-.36-.2c-.09-.08-.24,0-.32,0a95.76,95.76,0,0,1-26.09-13.13c2,3.28,4,6.52,6.07,9.69a101.81,101.81,0,0,0,24.74,11.93c21.51,20.48,42,37.58,55.56,66.23,10,21.1,21.67,68.5,14,97.16-.06-.84-.18-1.75-.27-2.59-3-27.86-14.71-48.07-27.29-69.3,1.48,6,2.87,12,4.17,18a149,149,0,0,1,6.34,13.53,177.63,177.63,0,0,1,11.66,53.9,1.38,1.38,0,0,0,0,.34c.62,12.77-.56,25.07-4.41,35.19a58.79,58.79,0,0,0-20-17c.22.77.37,1.56.58,2.34a5.19,5.19,0,0,1,2.37,1.92c2.1,3.23,4,6.31,5.83,9.36,13.71,14.73,16.87,34.17,13.47,53.8-.06.84,0,1.62-.12,2.5-1.45,15.31-5.74,30.32-11.28,44.85a100.28,100.28,0,0,0,17.91-34c13.36,32.66,28.34,61.13,35.21,97,4.91,25.42,8,53.25,28.66,70.82-19.78-13.43-35.68-33-49.6-52-.74-1-2.42.84-1.89,1.7,27.68,43.61,63,70.08,112.48,83.17-31.18,5.09-69.4-8.25-89-31.05-.86-1-3.14,1.56-2.37,2.51,12.88,16.38,29.31,25.29,49.24,30.68,3.19.88,6.48,1.74,9.8,2.51,42,22.63,80.44,54.37,94,100.94-16.37-23-40.18-42.59-63.6-49.56-1.39-.43-3.37,2.57-1.8,3.15,37.27,13.15,65.46,54.27,77.42,90.75-15-10.62-28.16-24.58-41.51-38.25a75.85,75.85,0,0,0,2.84,8.76c20.64,22.87,41.84,45.56,71.65,52.29a57.15,57.15,0,0,1-39.43-5.94c-1.07-.56-2.82,1.61-1.81,2.25a58.38,58.38,0,0,0,35.65,8.76c-.33.77-.39,1.59.41,1.88,40.41,15.12,76.3,52.44,86,95.13a141,141,0,0,0-48.47-41.57c2.1,3.11,4.12,6.28,6.1,9.43,21.41,15,39.67,37,48.11,61.66a121.21,121.21,0,0,0-15.27-14.08c3.43,6,6.86,11.93,9.77,18.18,3.58,4.62,7,9.37,10.24,14.32a4.17,4.17,0,0,0,.27.38c6.48,9.86,12.49,20.06,18,29.93,8.41,14.94,13.68,31,20.9,46.07-12.52-10.78-23.51-23.09-31.21-41.37-.62-1.49-3.1.93-2.78,2.07,8,27.92,23.69,48.67,46.6,66.2,23.57,18,42.22,35.81,55.52,59.84-3.73-4.13-7.67-8.1-11.79-12-1.51-1.47-4.73,2.41-3.22,4,7.49,7.92,14.71,15.87,20.39,25.27,3.32,5.5,7.38,12.68,9.06,19.72-28.12-30.6-64.6-54.45-87.84-89-.68-1-2.34.81-1.86,1.67,17,31.29,46.27,54,71,78.8,21.7,21.63,38.91,47.43,52.5,75a350.06,350.06,0,0,0-46.93-50.49c-1-.92-3,1.55-2.07,2.56,47.93,53.68,83.81,109.38,85,180.93-7.88-27.85-20.88-50.16-36.54-75.81-.89-1.48-3.34,1.13-2.69,2.4,11.75,23.46,23.62,43.45,30.23,69.28,5.44,21.36,7.19,43.36,13.08,64.59a190.52,190.52,0,0,0,12.23,31.78c-2.63-3.3-5.27-6.63-7.64-10.24-.29-.4-.65-.34-1-.11a126.93,126.93,0,0,1-17.92-34.68c-.44-1.39-2.93.87-2.66,2,4.17,17,14.8,39.61,29.78,55.64,9,14.72,20.28,29.18,26.83,44.33,13.17,30.43,18.3,66.95,9.18,99.25-1.48-25.74-11.46-51.76-25.67-71.23-1.1-1.5-3.62,1.23-2.88,2.53,15.61,27.3,23.75,59.24,20,90.15v.06c-1.89-19.71-6.31-40.13-17.29-51.82-1-1.11-3.35,1.65-2.67,2.78,10.34,16.7,15.46,43.27,15.31,69.72a101.6,101.6,0,0,1-3.37,9.92c-1.25,2.93,1,3,3,2-1.16,16.62-4.53,32.55-10.1,45.25-2.52-26-1.18-53.65-5.48-77.9-.29-1.57-2.39.42-2.34,1.42,1.34,21.6-3.4,58.2-.68,91.09a3.56,3.56,0,0,1-.26.36c-2,2.51-1.22,5.65.92,5.56a132.89,132.89,0,0,0,3.93,20.79c-6.54-11.82-11.93-26.1-8.2-37.9.62-2-1.74-1-2.25.21-8,19,2.67,48.21,19.63,67.22,4.38,13,5.66,26.51,6.19,40.49C1568,2071.14,1555.08,2141.46,1526.51,2143.86Z" transform="translate(-29.45 -40.6)"/><path class="cls-2" d="M251.54,1008.33c1.45-3.73-2.21-3.93-4.46-2.23-15.4,11.48-19.76,28.38-26.69,44.57-1.16-33,6.13-73.29,28.21-96.5,1.51-1.6,1.93-6.12-1.45-4.86q-10,3.6-19.74,7.79c-2.4,1-35.44,9.37-14,1.8a50.81,50.81,0,0,0,19.43-13.51c3.81-4.49,10.1-10.44,15.34-17.06-1.55,1.1-3.11,2.12-4.53,3.07-1.82,1.14-3.73,2.38-5.73,3.61-15.36,12-36.47,20.92-43.42,24.12-1.71.81-5.5,4.6-3,6.58,6.13,4.9,11.58,4.95,19.28,3.17,9-2.1,17.2-5.7,25.67-9.22,8.29-3.41-3.79,7.86-6.53,13.14-14.14,27.44-19.47,63.79-16.8,94.27.4,4.76,6.21.08,7.27-1.64,7.17-11.74,10-25.62,16.23-37.93,10-19.57,2.64-3.3,1.28,2.52-2.56,11.09-5,22.12-7.08,33.28-7.74,40.62,4.53,82.82,23.92,118.28,1.22,2.16,4.62-1.6,3.87-3.41C234.62,1120.41,228.49,1067.67,251.54,1008.33Z" transform="translate(-29.45 -40.6)"/><path class="cls-2" d="M284.81,1266.92a4.05,4.05,0,0,0,1.22-3.31,310.6,310.6,0,0,1-6.06-31c-1.82-12.83,3.63-27.62,6.09-40.12.41-2.08-2.52-.53-2.87.67-3.56,12.48-6.87,24-8.34,37-.9,7.81.37,15.77,2,23.57-21.24-53.41-10.72-105.3,18.68-155.94,1.23-2.07-1.21-2-2.16-.56-28.57,42.6-44,93.45-31.32,141.58A86.92,86.92,0,0,0,284.81,1266.92Z" transform="translate(-29.45 -40.6)"/><path class="cls-2" d="M361.05,1257.89c-26.9,43-23.39,92-5.18,138.52a1.32,1.32,0,0,0,1.11.87,184.35,184.35,0,0,0,3.87,25.39,113.42,113.42,0,0,0,22.07,27c-10.25-22.44-16-43.15-18.46-69.46-2.31-25.34,5.24-50,13.32-73.75,4.44-13,10.63-19,12.09-31.62.29-2.44-2.82-.28-3.13,1.13-3.56,17.35-16.11,34.8-21.9,52-4.87,14.52-9.47,31.13-9.06,46.43,0,.25,0,.46,0,.71-12.82-42.19-9.38-79.91,8.5-122.95,1.32-3.15-2.49-2.87-3.88-1.05-8.94,11.79-17.85,22.47-30.79,30-23.15,13.49-.62-13.94-1.21-13.11,3.73-5.06,6.39-10.9,9.2-16.49,13.33-26.49,24.19-59.1,17.41-88.85-.38-1.78-2.78.43-2.63,1.62,3.58,30.53-7.17,58.69-19.74,85.94-6.57,14.27-19.94,24-25.09,38.7-.53,1.51-.38,2.88,1.11,3.62C327.17,1301.67,353,1270.74,361.05,1257.89Z" transform="translate(-29.45 -40.6)"/><path class="cls-2" d="M538.87,1522.51a175.57,175.57,0,0,1-21.94-20.7c-20.38-21.66-36.5-57.1-33.36-87,.23-2.25-2.55-.23-2.82,1-4.88,21.74.26,44,9.42,64.17-14-11.52-26.32-24.5-36.28-40.8-16.2-26.53-14.47-57.42-14.88-87.24,0-1.57-2.53.2-2.56,1.26-1.05,29.09-2.84,56.15,7.92,83.75,10.38,26.57,32.89,47.8,56.62,62.91,15.53,24.38,38.15,38.24,65.42,43.61C556.39,1537.86,547.46,1529.54,538.87,1522.51Z" transform="translate(-29.45 -40.6)"/><path class="cls-2" d="M578.4,1500.4c-4.89-3.44-9.85-6.29-14.12-7.47,13.22,12.66,26.73,27.76,35,43.36,10.25,19.32,33.46,57,22.15,79.94,1.48-21.91-16-41.76-27.45-58.92-1-1.55-3.67,1.24-2.93,2.61,11,20.93,25.91,40.71,23,65.69-.54,4.65,5.38,1.16,6.1-1.37.08-.28.05-.55.11-.82.18-.07.3,0,.48-.13,16.59-12,9-35.17,3.73-51.64C615.64,1544,599,1520.29,578.4,1500.4Z" transform="translate(-29.45 -40.6)"/><path class="cls-2" d="M1091.76,1419c12.64-19.18,14.36-43.16,14.42-65.71,0-19.21-4.15-35.11-9.77-50.95a112.19,112.19,0,0,0-8.47-12.63c5.27,10.41,6.9,25.45,8.56,37,3.79,26.37,4.26,56.41-4.89,82.16-1.12-19.91-5.95-38.65-9-60-.21-1.45-2.1.36-2.07,1.26.38,17.11,4,33.75,5.59,50.77,2,23.45-5.36,47.21-9.06,70.22-4,24.9-5.89,51.84,2.82,75.45a92.8,92.8,0,0,1-10.72-18.1,160.5,160.5,0,0,1-11.64-40.77c-.86,3-1.71,6-2.43,9a172.56,172.56,0,0,0,3.5,20.09c-1.51-4.84-3.11-9.52-4.68-14.24-.56,2.87-1.07,5.74-1.54,8.63,16.49,71.1,32.54,145.08,17.11,217.19-.82-23.14-8.82-41.72-16.49-63.71-.38-1.21-2.48.73-2.22,1.68,4,16.06,9.36,31.72,12.32,48a150.6,150.6,0,0,1,1.69,32.35c-.92,3.21-1.9,6.36-2.91,9.55-2.45-14.33-6.89-27.42-13.67-37.35-.89-1.31-3,1-2.43,2.11,17.76,33.5,11.9,85,2.1,122.32-1.45-21-2-42.59-4.74-64.76-.2-1.47-2.22.34-2.19,1.33,1.84,38.24-4.76,75.1,2.76,113.22a197.4,197.4,0,0,0,7.84,29.53c-.62-.77-1.24-1.43-1.86-2.25-11.43-14.52-13.53-34.77-19.6-51.68-.48-1.3-2.79.83-2.52,1.87,9.42,34.11,17.73,83.65,61.94,88.29a3.16,3.16,0,0,0,.32,0c-11.42-8.43-20-19.72-26.26-33.87-6.84-15.46-14.36-34.9-12.73-52.64q-1.33-9.27-2.19-18.67c10.81-19.13,16.49-49,15.31-77.38,4.62-8.32,5.71-18.58,5.77-28.63,26.59-67.65,13.92-147-6.78-216.74,5.6,15.37,14.12,29.24,26.65,38.16a1.87,1.87,0,0,0,2.07-.19c0-10.92-7.28-31.63-6.93-38.8,0-.46.09-.84.12-1.29-4.41-30.32.24-59.89,5.42-91.72A123.94,123.94,0,0,0,1091.76,1419Z" transform="translate(-29.45 -40.6)"/><path class="cls-2" d="M727.68,1534c-5.43,21.39-16,40.56-20.09,62.81a349.28,349.28,0,0,1,4.84-54c6.62-38.2,26.65-69.58,35.83-106.14.44-1.75-1.57-.92-1.93.17-11.53,33.49-31.63,61.42-39.44,97-7.52,34.5-12.82,72.64-4,107.48a281.25,281.25,0,0,0,3.37,57.49c.74,4.36,6.34-1.16,6.29-3.82-.6-33.65-3.27-66.4,2.21-99.87,3.49-21.3,12.29-41,16-61.82C731.2,1531.06,728,1532.71,727.68,1534Z" transform="translate(-29.45 -40.6)"/><path class="cls-2" d="M746.61,1814.91c0-1.2-1.88.17-1.94.94-.94,20.52-1.37,40.34-3,59.91-7.16-71.57-25-146-16-217.19.25-2-2.41-.52-2.71.59-7.82,28.95-5.15,58.68-3.42,88.29a1213.85,1213.85,0,0,0,18.49,152,1.57,1.57,0,0,0,.65,1.11,220.27,220.27,0,0,1-11.87,45.21c-1,2.5,1.72,3.36,3.32,1.67C759.68,1916.62,748.46,1852.52,746.61,1814.91Z" transform="translate(-29.45 -40.6)"/><path class="cls-2" d="M1139.63,1587.29c3.5-2.43,6.93-5,10.34-7.55a105.69,105.69,0,0,1,10.83-8.56c7.61-5.18,15.84-10.39,24.37-13.87,6.54-2.65,10.92-1.55,16.79-5.55,1.27-.86,1.89-4-.36-2.76-7.64,4.31-17,2.43-25.08,6.92-3.37,1.89-6.86,3.8-10.33,5.77,31.92-28.35,64.25-48.42,108.81-52.77a39,39,0,0,0-6.31-3.05c-41.48-.79-75.38,23.52-105.73,50.37-2.34,2.4-4.67,4.79-6.87,7.32-1.95,2.23-3.78,4.51-5.53,6.82a4,4,0,0,0,.27,1.26c-1.13.9-2.11,1.94-3.17,2.87C1144.7,1578.67,1142.12,1583,1139.63,1587.29Z" transform="translate(-29.45 -40.6)"/><path class="cls-2" d="M1157.1,1613c-15.84,11.11-23.77,26.67-31.09,44.32a469.4,469.4,0,0,0-27.68,93.41c-.8,4.25,5.12,1.12,5.77-1.32,11.46-40.75,17.44-106.14,53.89-133.51C1159.41,1614.82,1159.29,1611.43,1157.1,1613Z" transform="translate(-29.45 -40.6)"/><path class="cls-2" d="M1117.46,1741.93c-7.64,20.39-20.25,36.07-35.8,52.55-2.22,2.35-.18,5.71,2.49,3.17,14.51-13.73,25.67-28.93,33.07-46.46C1117.37,1748.11,1117.43,1745,1117.46,1741.93Z" transform="translate(-29.45 -40.6)"/><path class="cls-2" d="M1364.17,1520.54c-1.59-.43-4,3-2.07,3.67,58.33,21.69,83.05,94.28,82.22,151.41,0,3.61,5.33-.74,5.63-2.75C1459.21,1614.19,1424.4,1537.62,1364.17,1520.54Z" transform="translate(-29.45 -40.6)"/><path class="cls-2" d="M1481.15,1811.46c-35.85-68.22-27.62-147.39-70.73-212.69-.83-1.18-2.87,1-2.31,2,21.56,37.44,29.34,75.55,35.53,117.72,5.09,34.39,10.45,69.47,32.07,97.75C1477.84,1819,1482.49,1814,1481.15,1811.46Z" transform="translate(-29.45 -40.6)"/><path class="cls-2" d="M656.83,2159c10.07,35.1,14.74,73.41,7.76,109.28,0-21.2-2.94-43-8.21-60.4-.41-1.42-3,.87-2.69,2,6.9,32.58,5.09,69.51-.09,102.33-.71,4.5,5.35,1.17,6-1.34a142.44,142.44,0,0,0,3.69-20.4c16.3-33.34,13-76.15,3-114A183.72,183.72,0,0,0,656.83,2159Z" transform="translate(-29.45 -40.6)"/><path class="cls-2" d="M667.1,1970.91a5,5,0,0,0,2.31-2.5c10.08-31.06,6.34-61.94-.81-93.4-3.51-15.37-9.11-30.33-14.44-45.14-4.82-13.25-15.53-24.94-19.33-38.15-.44-1.52-2.49.39-2.34,1.44,2.64,17.2,15.1,35.47,20.79,52.42,12.55,37.51,21.14,80.06,11.42,119.15a257,257,0,0,0-21.89-43c-.61-1-2.27.77-1.82,1.61a248.14,248.14,0,0,1,30.46,114,232.52,232.52,0,0,0-15.27-61.43c-.54-1.29-2.49.87-2.21,1.91,7.54,25.37,12.78,52.79,13,79.31.19,20.43-2.58,41-1.5,61.36.21,3.57,5.27-.65,5.48-2.63,1.23-11.25,2-22.56,2.35-33.78C686.51,2048.86,680.6,2007.38,667.1,1970.91Z" transform="translate(-29.45 -40.6)"/><path class="cls-2" d="M943.78,807.45A131.59,131.59,0,0,1,913,834.86a4.41,4.41,0,0,1-.18-2.57c4.89-15.4,7.43-30.36,9-45.86-.47,1.86-1,3.73-1.6,5.61-10.08,30.37-35.46,52.4-63.18,67.74a254.33,254.33,0,0,0,26.18-26.94c16.63-14.45,30-32,36-52.78.52-1.09,1-2.16,1.52-3.27a162.53,162.53,0,0,0,7.39-17.56c2.07,20.95-1.54,42-5.54,62.64,15.19-17.47,25.35-40.48,30-64.18,3.6-15.29,4.84-30.74,5.27-46.33A154.38,154.38,0,0,1,959.65,753c13.62-28.63,17.23-59.12,10.13-89.32-.18-5-.57-10-1.22-15,16.49,40.95,13.78,85.79-11.91,123.51A138.9,138.9,0,0,1,943.78,807.45Z" transform="translate(-29.45 -40.6)"/><path class="cls-6" d="M1594.16,2030.67c-14.12-10.69-24.54-32.05-29.9-50.32a125.64,125.64,0,0,1-6.93-26.58c12.11-15.53,15.34-34.75,15.16-55.18,0-3.54-.09-7.56-.18-11.77a88.37,88.37,0,0,0,6.93-26.72c14.66-23.48,15-50.91,11.16-78.47-2.63-19.1-9.68-37.26-17.73-54.57a87.85,87.85,0,0,0-7-11.93c.45.18.86.52,1.36.68a20.12,20.12,0,0,0,10.66,2.53c.06,0,.12-.09.18-.12a39.27,39.27,0,0,0,8.53,0c-18.72-7.39-31.92-25.51-39.09-45.67-7.66-18.39-12.13-39.4-15.39-55.47,1.51-1.5,2.81-3.47,2.93-4.53,4.83-43.91-4.32-82.83-22.74-117.63a248.1,248.1,0,0,0-47.61-91.49c-.35-.41-.74-.77-1.06-1.2,2-6.61-.77-13.41-4-19.61a3.3,3.3,0,0,0,.59-2c-4.82-30.19-21-55.74-43.64-75.85-6.6-5.87-13.26-11.06-19.84-16,0,0,0-.06,0-.12-21.77-29.44-33.7-67.09-54.75-97.57a3.83,3.83,0,0,0,.42-1.87,84.76,84.76,0,0,0-9.39-29.08,4.24,4.24,0,0,0,.62-1.87c-.94-49.55-44.29-93.34-89.44-109.07a73.17,73.17,0,0,0,10.75-2.62c2.69.23,5.47.32,8.35.29a4.76,4.76,0,0,0,3.22-2.2c-8.79-2-17.35-4.09-25.13-8.19a91.58,91.58,0,0,1-26.06-11.49c1.81-1.25,3.55-3.65,3.26-5.19a105.48,105.48,0,0,0-11.58-29.45,4.69,4.69,0,0,0,1.39-3.3c-6.18-50.6-47.69-85-90.36-107.81,10.54,1.36,21.14.86,30.68-4.07a103,103,0,0,1-15.16-10.87c-18-5.63-35.53-11.8-52-21.67-1.16-.7-2.22-1.47-3.38-2.22,1-.17,1.93-1.72,1.27-2.49-22.88-28.23-23.15-62.65-31-96.61-6.37-27.64-20.17-50.7-34.67-74.48h-.06a110.13,110.13,0,0,0,2.63-14.64,64.15,64.15,0,0,0-9.56-40.27c9-11.85,9.12-27.71,7.78-42.62,15.55-21.33,6.19-59.86,1.63-82.75-7.78-38.83-30.23-66.17-59.94-88.23a77.67,77.67,0,0,0,23.35.62,50.94,50.94,0,0,0,18.8.11,6.22,6.22,0,0,0,2.87-2.34A140.54,140.54,0,0,1,976.16,385c-14.41-6.34-26.71-15-39.79-27.21-4-3.7-7.91-7.55-11.8-11.37-6.4-17-13.52-33.8-22.85-49.39,1.8-1,3.65-3.83,3.13-5.49-14.58-47.19-52.51-88.46-99.75-103.34,1.67-.59,3.26-1,5-1.66,7.84-3.09,17.18-7.79,22.7-14.88-7.31.31-14.61-.25-20.72-2.6-45.54.56-83.37-21.47-128.91-30.07a229.75,229.75,0,0,0-53.35-3.68c-.21-.43-.25-.94-.83-1.16-19.51-7.5-44.29-9.56-64.87-4.65-11.61,2.77-21.7,6.56-31.55,13.15,8.71-5.83,20.8-16.2,33.19-21.78a8,8,0,0,0,3-3.4,178.27,178.27,0,0,1-19.31-1.34C524,121.64,495.91,140.19,486.65,164c-8-6.91-13.68-16.37-17.32-26.94a98.83,98.83,0,0,1-9.3-19c-3.94,15.33-5.69,29.51-1.1,43.26a78.22,78.22,0,0,0-47.07-5.27,152.71,152.71,0,0,0-14.54,11.66c11.27,2,44.29,9.09,15.28,9.17-17.1.06-39.32,18-52.67,26.6-30.63,19.61-55.22,45.86-74,76.48a161.49,161.49,0,0,1-34.05,21.33,5,5,0,0,1-2.37,1.55c-1.24.39-2.53.67-3.79,1a139.08,139.08,0,0,1-26.32,7.76A140.68,140.68,0,0,1,176.16,321c8.63,10,22.11,15,35.61,15.66-29.93,15-55.36,46.35-64.93,76.09-.78,2.44.89,3.57,3,2.47,9.27-4.78,15.31-11.49,23.78-17.84a126.67,126.67,0,0,1,13.45-8.66c-15.46,15.93-26.76,35.52-35.8,56.79-7.91,18.55-11.57,38.4-14.78,58.21-5.7,34.85-18,62.34-40.15,87.43a57.25,57.25,0,0,1-9.65,12.92c-.93.89-2,1.63-3,2.47.24.83,1,1.25,2.37.12.56-.44,1-.93,1.57-1.39,17.79-5.83,31.86-21.48,44.23-35.87C114,603.91,98.72,638.46,98.6,676.2A333.27,333.27,0,0,0,111.4,715a4.3,4.3,0,0,0,.58-1.68c.11-28.46,11.59-54.81,22.73-79.93C126,653,116,683.53,118,705.32c4.3,46.5,25.84,85.93,62.67,113.84,12.29,17,11.63,40.07-11.13,50.74-.93.46-3.4,2.88-1.83,3.94,9.78,6.78,23.74,2.62,33.1-3.17,17.56-10.92-3.61,10.1-7.4,14.93a299.27,299.27,0,0,0-29.37,44.33c-25,46.26-30.35,120.37-4.09,168.84.65,23.27,6.13,45.67,19.66,63.64,2.4,3.23,6.63.09,8.41-3.14,9.06,54.37,40.29,105.12,59.73,155.9.16.41.49.4.75.49a470.76,470.76,0,0,0,18.27,71.48c14.72,43.13,33,84.83,50.1,127-5.89-32.14-10.57-64.46-14.2-96.77-.25-2.12,2.68-2.48,3.67-1,34.84,52.39,63.82,107.82,82,168a485.13,485.13,0,0,0-22.32-109.11,2,2,0,0,1,3.3-1.92c33.32,37.64,43.15,86.36,61.06,131.8-2.69-23.9-11.25-46.77-14.92-70.54-.27-1.69,1.91-3.69,3.3-1.93,46.71,59.94,76.28,132.85,92.27,206.78,14.3,66.08,19.16,135.35,8.35,202.36,10.28-12.65,17.17-29.13,21.26-45.19a89.24,89.24,0,0,1,3.35-17c.76-2.53,4.14-1.4,3.8,1a148.37,148.37,0,0,1-3.21,16.42c-2.19,21.18,1.88,42.9-.68,64.13-2.73,22.68-7.67,44.78-16.39,65.77,15.26-17.93,22.89-41.61,32.49-62.81.8-1.76,3.82-.89,3.67,1-4.53,58.45-18.83,115.78-50.36,165.08,2.82,2.53,11.25.35,14.63-2.87a63.38,63.38,0,0,0,10.42-13.28c4.56-7.63,8.35-15.66,12.76-23.36a2,2,0,0,1,3.67,1,243.81,243.81,0,0,1-23.71,98.25,400,400,0,0,0,26-41.88,2,2,0,0,1,3.61.46c5.36,24.85-3.31,51.32-13.94,73.66-11.64,24.44-26.8,47.36-46.42,66.14-10,9.57-35.22,38.59-51.18,23.69-13.46-12.57-15.89-34.51-14.43-54a289.37,289.37,0,0,0-13.37,70,2,2,0,0,1-3.9.53c-10.51-28.24-12.73-63.05-1.49-91.91a180.91,180.91,0,0,0-25.45,48c-1.92,29.35,2.58,59,15.74,85.44a74.66,74.66,0,0,0-13.7,18.62c11.05-13.41,26.21-23.8,41.93-28.36,4.17-1.18,13.93-3.85,14.68,3.23.88,8-6,17.14-9.35,23.86-6.75,13.31-8.94,29.15-16.89,41.79-5.52,8.77-16,17.63-27.21,16.55a21.73,21.73,0,0,1-4.4-.84c13.29,20.38,44.47,25.27,68.81,19.38,17.79,12.18,40.89,9.31,60.22,2.47a3.32,3.32,0,0,0,1.21-1.16c12.82,5.13,29.11,4.19,44.09-1.89,25.52-2.81,52.2-12.29,69.92-31.64,10.94-11.93,20.28-26,27.94-40.26a33.51,33.51,0,0,0,3.07-8.31.29.29,0,0,0,.18-.12c4.17-1.08,8.2-3.21,12.67-3.33a41.56,41.56,0,0,1,5.55.3c2.06.19,3.67,1.64,5.6,2,2.57.44,3.95,1.21,6.08.86-9.1,13-11,30.08-12.3,45.62-2.93,35.09,31.63,34.75,55.94,26.28a27.32,27.32,0,0,0,7.65,5.76c13.4,6.69,35.62,4.9,48.93-.89.15-.09.36-.33.53-.46,21,6.72,53.53-4.41,73.93-13.2a2.15,2.15,0,0,0,1.45.26c29.26-3.83,48-33,60.14-57.05a129,129,0,0,0,6.39-15.74c.3,0,.56.06.86-.13,36.24-26.79,86.16-12.5,126.39-6.59a3,3,0,0,0,2-.62,13.59,13.59,0,0,1,2.22,2.21,20.72,20.72,0,0,0,3.67,11.19c5.18,7.33,16,8.82,24.1,10.4a62.89,62.89,0,0,0,29.52-.8c14.18,5.72,26.2,5.75,40.89.29,8,2.93,17.94,2.59,26.64,1.42,48.79,10.29,106.65,8.07,150.79-15.21,17.41-9.16,41.92-30.18,44.53-52.49,29.55-8.69,49.33-52.54,53.2-82.09a120.52,120.52,0,0,0,19.46-18.87c29-6.14,51.57-38.82,61.28-72.42,17.38,4.28,31.3-28.29,36.63-40.71,10.66-24.66,17.47-59.23,9.35-87.36,6.64,5.16,13.74,8.66,20.85,9.48A3.92,3.92,0,0,0,1594.16,2030.67ZM217.41,721.05a337.64,337.64,0,0,0-7.65,71.46,2,2,0,0,1-3.67,1c-12.17-18.45-14.57-40.18-14.6-61.79-.24,1.69-.44,3.37-.59,5.06.1.39.21.78.33,1.14a1.73,1.73,0,0,1-.51,1.91A74.13,74.13,0,0,0,191,753c.21,2.06-2.75,2.52-3.7,1-17.2-27.46-21.64-62.44-15.43-94.77-6.57,15.11-11.46,31.06-16.22,46.84a2,2,0,0,1-3.81,0c-21.05-83.94,19.56-164.35,54.44-238.68-10.87,9.5-20.2,20.7-31.36,29.95-1.36,1.11-4.08.1-3.31-1.94,9.68-25.33,17.49-51.7,30.14-75.78,11.31-21.56,26.32-39.76,45.74-54.18-11.87-1-23.86,1.7-35.74,2a2,2,0,0,1-1-3.68c14.3-8.52,29.87-14.44,45.21-20.82-10.13.92-20.25.73-30.23-1.94a2,2,0,0,1,0-3.8C265.92,328,288,291.36,318.29,267c29.93-24,64.79-45.58,103.46-50.57-12.17-5.74-26.77-4.5-40-3.33-2.17.21-2.38-2.63-1-3.68,20.27-15.4,49.06-19.44,73.52-12.59a58.53,58.53,0,0,0-12.62-16.93c-1.79-1.62.49-4,2.4-3.1,21.75,10,39.38,23.82,52.21,42.88-4.81-21-4.27-46.1,13-58.72a2,2,0,0,1,2.9,1.19c5,17.33-.37,35.32,2.28,52.83,8.78-27.13,31.26-55.1,62.08-51.31a2,2,0,0,1,1.38,3.39c-12.8,15.24-21.41,32.68-28.47,50.85,33.1-27.35,72.5-42.07,117-42.36,2.57,0,2.52,3.83,0,3.95-19.37.89-35.47,18.24-47.6,33.65,23.19-13.22,48.69-23.88,75.54-25.39,29.72-1.66,57.14,7.31,81.82,23.64a2,2,0,0,1-1.53,3.61,42.58,42.58,0,0,0-19.3.24c24.35,7.59,47.36,25,60.09,43.33a2,2,0,0,1-1.7,3c-12.29-.4-24-4.53-36-5.88,27,9.12,56.23,25.33,66.56,51.83.71,1.79-1.51,2.87-2.9,2.25a200.8,200.8,0,0,0-27.27-10.38c21.66,11.28,39.35,29.39,58.33,45.84,1.71,1.48-.51,4.26-2.39,3.09-9.66-6-20.47-8.23-31.57-8.62C890,363.25,929.88,406.88,960,456.32c1.3,2.21-2.08,4.15-3.44,2-7.89-12.38-18.72-19.81-30.66-25.74a203.26,203.26,0,0,1,25.27,43c8.8,20.21,12.44,41.94,15.52,63.61,3.11,22.13,5.21,45-.56,66.93a2,2,0,0,1-3.85,0c-5.42-17.85-14.87-33-26.84-46.25,3.57,7.31,6.26,14.63,7.15,16.79,10.7,26.85,7.22,57-2.18,83.86-.72,2-4,1.81-3.89-.52.71-14.27-3.14-27.46-9.71-39.4,10.11,30.73,3.55,68.73-10.34,95.75-.87,1.7-3.87,1-3.7-1a99,99,0,0,0,.46-10.57,123.93,123.93,0,0,1-19.4,46.56c-8.86,13-19.31,25.5-31.3,35.72-9.37,8-20.77,16.84-33.78,16.25-1.16,0-2.43-1.23-1.91-2.48,7.42-17.65,7.74-36.48,4.08-54.81A125.32,125.32,0,0,1,826,774c-6.13,20.9-17.24,43.88-37.78,53.87a2,2,0,0,1-2.71-2.7A109,109,0,0,0,794.55,796c-20.21,34.22-58,58.45-98.33,56.87-1.17-.06-2.41-1.26-1.91-2.5C698.4,840.21,705.87,832,710.12,822A85.49,85.49,0,0,0,716,797.46c-12.59,19.43-30.27,36-52.92,39.46-1.61.27-3.21-1.24-2.24-2.88,8.38-14,11.23-29.55,10-45.26-7.4,11.43-16.78,21.11-30.61,23-11.37,1.57-25.23-3.15-35.37-7.8-11.94-5.47-23.49-13.59-29.46-25.62-7.09-14.38,6.77-26.51,17.55-33.53,18.26-12,41.15-21.85,49.32-43.82,7-18.7,2.86-38.46,5.82-57.79,2.38-15.53,8.48-29.37,26.19-29.12,12.79.18,25,3.74,37.32,6.82a129.75,129.75,0,0,0,41.11,4.1c16.1-1,33-3.46,47.46-11,11.6-6.06,18.37-24.25,23.55-35.72,6.56-14.52,12.4-29.76,15.91-45.35,1.54-6.94,1.87-15.72,5.91-21.85,5.26-7.93,14.51-11.59,22.93-15.27,4-1.78,8.11-3.45,12.21-5.1-84.81-19-193.14-40.14-229.05,54.14-.62,1.67-3.38,2.1-3.82,0-.42-1.92-.71-3.85-1-5.74A228.49,228.49,0,0,0,637.33,584c-2.88,26.89-2.44,54-2.41,80.92,0,2.22-3.44,2.77-3.89.53a134.18,134.18,0,0,0-6.18-19.75,47.36,47.36,0,0,1-2.13,7.82c-5.68,15.38-20.81,26.28-36.15,30.7C570,689,548.7,690,532.54,683c-12.44-5.48-19-16.28-23.82-28.23-1.38,5.58-2.86,11.16-4.4,16.71a2,2,0,0,1-3.79,0c-6.32-19.11-7.7-39-9-59-1.29-19.52,0-38.66-.46-58.14-.49-20.42-5.92-38.6-23.1-51-13.05-9.43-28.2-15.41-43.76-19.44-40.07-10.42-82-12.55-122.42-2.74-27.79,6.72-65.58,20.56-79.45,48.14,8.78-3,17.13-7.92,25.62-11.53,7.69-3.26,17.77-7.74,26.37-6,19,3.86,10.46,36.46,15,49.53,18.95,55.06,93.36,54.88,140.08,45.76,15.21-3,40.16-14.52,51.9,1.66,11,15.17,8.46,36.42,8,54.05-.31,13,1.69,24.16,9.36,35.14C506,708.5,515.22,719.19,526,726.56c14.49,9.89,31.13,20.74,25.26,41s-22.65,37-40,48c-7.79,5-16,9.36-25.49,8.13-6.75-.89-12.49-5.31-17.41-10.08,1.33,9.24,5,17.88,6.25,27.16.75,5.6-.06,12.37-6.62,13.91-11.8,2.82-25.54-2.48-36.25-7A78.05,78.05,0,0,1,410.53,835c4.53,11.33,8.27,23.66,18.74,29,2.13,1.06.56,4-1.51,3.61-21.7-3.85-42.09-18.08-58.27-32.42-1.33-1.18-2.69-2.41-4.07-3.66,6,12.38,12.21,24.68,18.08,37.15a2,2,0,0,1-2.23,2.87c-56.46-9.37-76.2-69-97.61-115.25,2.34,20.76,9.56,40.87,9.15,61.94a2,2,0,0,1-3.36,1.41c-22.84-23.72-27.11-55.59-38.36-85.07-4.13,31.34,4.8,62.88,16,92.05.74,1.93-2,3.2-3.31,1.93C234.29,800.11,216.64,761.2,217.41,721.05Zm242.5,1718c-17.17-2.28-16.91-15.57-9.89-30.69,1.19-10.62,5.92-21.24,11.55-29.78,5.45-8.23,15-21.63,26.29-22.19,3.64-.71,7.52.16,11.25,3.49,9,8,10.19,18.68,8.29,30C503.46,2413.52,488.42,2442.85,459.91,2439Zm122.84-39.15c-11.07,18.89-43,52.61-67,34.5-14.68-11-13.47-25-6.11-38.38a2.07,2.07,0,0,1-1-2.76c5.71-12,17.51-23.36,30.78-30.91,2.23-1.91,4.29-3.61,6.11-5.1a2.11,2.11,0,0,1,3.12.57,60.19,60.19,0,0,1,18-4.57C593.53,2351.23,592.94,2382.48,582.75,2399.89Zm113.74-960.52c-6.57,13-10.91,27.46-19,39.67-1,1.54-3.71,1-3.68-1a178.13,178.13,0,0,0-6.74-49.62c.95,22.93-1.3,46.85-10.69,67.76a2,2,0,0,1-3.4,0c-14.08-28.15-28.48-56.61-47.86-81,4.38,8.51,8.26,17,11.77,24.77,7.25,16.19,14.11,32.62,19.36,49.6,6.34,20.49,12.9,42.56,8.47,64.13-.36,1.78-2.72,1.75-3.58.46-10-14.61-20.2-29.4-32.94-41.74-13.43-13-29-22-44.1-32.82-20.19-14.48-35.47-32.22-44.29-54.39,4.67,30.76,19,58.57,30,87.89.64,1.62-1.5,3.09-2.9,2.22-57.47-36.23-78.49-102.61-72.36-167.37-11,29.13-6.07,61.73-10.41,92.36-.33,2.19-3.2,1.55-3.8,0a270.42,270.42,0,0,1-18.41-122.77,365,365,0,0,1,8.31-51c-31.4,48.91-51.9,103.52-38.82,163.52.36,1.84-1.89,3.47-3.33,1.93-25.59-27.77-31.25-67.37-27.1-103.73a253.11,253.11,0,0,1,22.8-80.49c-16.73,23.82-29.85,49.45-38.55,77.87-.54,1.78-3.41,2-3.79,0-7.72-40.06,9.8-75.69,21.31-112.66a272.6,272.6,0,0,1-43.06,48.93c-1.38,1.24-4,.09-3.3-1.93,9.46-26.55,15.43-54.21,15.78-82.47,0-.91,0-1.82,0-2.72-8.46,30.61-21.69,61-41.47,85.8-1.07,1.35-3.49.27-3.37-1.39,1.55-19.78,8-38.55,10.93-58.09,2.7-17.66,1.47-35.56,3.57-53.26-11.34,18.61-17.94,39.49-23.82,60.47a2,2,0,0,1-3.79,0c-17.89-60.65,2-123.46,40.24-171.6-31.26,24-55.1,55.44-66.75,93.81-.53,1.74-3.49,2.07-3.8,0-8-52.22,9.6-100.71,43.65-139.33-21.4,12.67-38.72,30-54.87,49.23-1.41,1.72-3.56-.19-3.29-1.91,4.93-32.48,26.42-58.78,52-78.71A168.74,168.74,0,0,0,276,969.55c-2,1-4-1.44-2.4-3.11,14.3-14.48,27-30.76,43.08-43.46,5.12-4.05,11.55-9.52,18.42-10,7.62-.55,11.54,6,14.45,12.17,5.53,11.71,11.54,20.53,23.18,27.31a119.32,119.32,0,0,0,37.91,14.27c28.67,5.46,58.07,4.19,86.94,1C538,963.33,577.84,956.4,618,950.63c53.44-7.68,139.42-18.21,168.2,39-2.22-17.8-7.37-35.33-5.59-53.42a2,2,0,0,1,2.48-1.89c40.27,10.91,64.87,53.47,73.34,92.77,4.41-24.36,6.93-49.54-1.94-73.21-.8-2.17,2.5-3.38,3.63-1.51,25.37,41.83,76.71,99.59,40.87,149.63a2,2,0,0,1-3.63-.46c-5.8-14.36-7.31-30.86-14.27-44.65,12.5,42,11.7,88.23-.77,130.07-6.07,20.35-13.68,40.77-24.48,59.14-8.29,14.14-18.65,28.92-34,35.9a2,2,0,0,1-2.92-2.24c2.13-8.51,4.23-17.11,6.13-25.73-13.33,24.61-28.81,48.14-45,70.57-18.41,25.57-38.91,49.37-57.76,74.6C712.73,1411.89,703.64,1425.13,696.49,1439.37Zm319-133.06c-9.8-22.73-28.51-39.74-41.89-60.13,19.18,77,60.39,152.64,33.63,232.37-.59,1.69-3.43,2.06-3.82,0-6.65-36.19-9.36-74.9-25.31-108.39,20.31,64.34,29.78,136.88,5.38,200.67-.5,1.39-2.84,2.23-3.61.45-1.63-3.82-3.14-7.68-4.59-11.56.8,65.94-10.63,133.24,9.54,197.25.72,2.29-2.36,3.19-3.62,1.54-15.84-21.14-28.54-45.19-35.11-70.82.62,26.79,2,54.13,10.33,78.94,9.45,27.92,27.89,53.12,32.36,82.61a2,2,0,0,1-3.33,1.94,179.67,179.67,0,0,1-20.32-19.77c7.78,26.86,13.08,54.54,14.74,82.33,2.28,38.07-1.61,77.79-21.61,111a2,2,0,0,1-3.64-.49c-4.15-19.92-3.91-40.28-6.22-60.42-6,63-4.65,126.73,21.72,185.47.86,1.94-1.44,4.12-3.1,2.4-14.36-14.76-24.7-33.1-31.93-52.76,1.26,42.74-3.31,86.85-21.2,126.08A247.72,247.72,0,0,1,884,2274c-10.15,13.12-22.29,26.86-39,31.22a2,2,0,0,1-2.43-2.44,243.92,243.92,0,0,1,5.13-25.73c-1.44,2.06-2.85,4.12-4.3,6.14-18.53,25.64-42,53.62-73.54,62.86a2,2,0,0,1-2.24-2.9c7.06-14.3,19-25.64,25.48-40-14.77,16.92-31,33.52-52.24,41.61-1.79.65-2.9-1.52-2.24-2.9,7.26-15.13,15.52-29.92,21.65-45.52,6.48-16.45,9.77-32.89,11.54-50.48,2.33-23.7,3.19-47.49,3.88-71.29-7.37,15.38-17,29.25-30.41,39.46-1.43,1.1-3.33-.68-2.9-2.2a898.08,898.08,0,0,0,30.44-169.5c-5.7,17.49-9.65,35.49-14.76,53.21a2,2,0,0,1-3.89-.54c.06-37.34-.09-76.82,8.32-113.4,7.26-31.46,20.88-62.09,24-94.39-8.91,21.66-16.77,45.64-35.51,60.22a2,2,0,0,1-3.3-1.92c10.63-71.83,23.28-143.54,25.8-216.13-10.45,20.89-19,42.45-20.61,66.38a2,2,0,0,1-4,0c-4-42.22-8.23-84.77-5.36-127.21,1.24-18,3.64-36.43,8.38-54-6.72,11.36-12.94,23-17.59,35.46-.74,2-3.88,1.82-3.88-.54.36-61.4,21.7-117.14,52.64-169.14-16.1,11.48-27.28,28.45-35.79,46.23-1,2.12-4,.52-3.6-1.54,9.34-46.13,35.72-82.59,64.53-117.79,10.13-24.77,28.57-44.49,41.57-67.69,14.86-26.48,27.38-54,35-83.43a2,2,0,0,1,3.82,0,295.91,295.91,0,0,1,5.72,36,302.43,302.43,0,0,0,11-37.45c4.49-20.18,8.13-40.56,13.68-60.49a2,2,0,0,1,3.83,0c10.94,38.39,4.67,79.14-1.89,118,30.12-59.72,36.47-127.85,58.72-190.52.54-1.47,2.82-2.18,3.62-.48,12.94,27.24,14.3,59.47,21.25,88.62,7.5,31.39,15.4,63.1,14.6,95.61C1019.13,1307.13,1016.32,1308.24,1015.52,1306.31Zm337.85,453.17a109.26,109.26,0,0,1-51.73-16.92c19.49,35.93,26.59,78.7,24.7,119.1a2,2,0,0,1-3.88.49c-4.15-15.86-10.72-32.51-21.41-45.44,18.15,33,17.2,71.8,22.62,109,.33,2.47-3.05,3.56-3.85,1-5.83-18.77-16-35.07-26.58-51.19,19.57,60.1-5.39,135.37-47.91,178.62-1.3,1.35-4,0-3.29-1.91,5.33-14.37,6.73-29,7.08-43.77-7.76,26.69-21.7,52.26-36.42,74.22-10.8,16.15-22.26,31.21-38.22,42.58-17.44,12.4-38.84,22.87-50.09,41.86a2,2,0,0,1-3.68-1,164.88,164.88,0,0,1,6.87-47.3c-27.24,26.68-46,64.57-51.78,101.88-.3,2-3.32,1.76-3.82,0-13.56-52.08,21.29-95,41.48-140.34-11.31,15.41-23.71,30-41.21,38.68a2,2,0,0,1-2.7-2.71C1081,2090,1098,2066.14,1106,2038.22a367.73,367.73,0,0,0,8.64-38.45,197.88,197.88,0,0,1-52.93,49.45c-1.63,1-3.88-1-2.7-2.7,23.93-33.88,37.37-74.61,45.33-115,5.39-27.42,7.31-57.15,18.18-83.23-11.22,16.57-19.78,34.94-32.75,50.36a2,2,0,0,1-3.37-1.39c3.85-36.56,20.25-68.08,37-99.92-11.07,9.93-23,18.66-36.63,25.16a2,2,0,0,1-2.39-3.08,377.09,377.09,0,0,0,68.89-110.21c-10,9.74-20.37,19.11-30.49,28.62-1.34,1.25-4.09,0-3.32-1.93,24.46-60.35,41.36-138.19,106.73-163.36a136.64,136.64,0,0,0-43.16,14,2,2,0,0,1-2.43-3.09c9.83-10.51,23.24-23.61,38-32,9.89-12.21,26.71-19.43,41.31-23.21,16.78-4.34,37.33-6.56,52.58,3.69,29.31,19.66,36,63.79,34.94,96.38a2,2,0,0,1-3.67,1c-10.9-14.73-23.51-36.59-43.47-38.5,36.92,36.19,49.45,84,48.44,135a2,2,0,0,1-3.67,1c-9.33-16.81-22.89-30.62-34-46.21,8,28.71,17.94,56.85,43.31,75.13C1355.85,1756.85,1355.5,1759.6,1353.37,1759.48Z" transform="translate(-29.45 -40.6)"/><path class="cls-6" d="M479,1421.34c2.56,23.06,6.88,45.82,14.09,68,.67,2-1.91,3.23-3.29,1.93-22.93-21.81-39.43-50.62-50.12-80.2C433.21,1393,428.31,1374,427,1354.78c-4.15,42.64,2.66,85.82,16.09,126.66.58,1.82-1.47,2.92-2.93,2.24-40.95-18.91-60.07-66.77-64.95-109a211.76,211.76,0,0,1-.07-49.64c-5.25,14.08-10.38,28.26-16.65,41.94-.68,1.54-3.26,1.11-3.62-.49-6.95-33.28-6.06-68.41,1.28-101.83-8.62,9.6-18.89,17.11-31.8,20.14a2,2,0,0,1-2.41-2.39c6-18,12.12-36,16.3-54.44A107.66,107.66,0,0,1,326,1248.63c-7.55,9.65-16.14,18.45-22.95,28.7a2,2,0,0,1-3.61-.47c-9.89-24.49-8.76-50.54-7.34-76.38-.21-.88-.42-1.79-.61-2.66-3.09,5.89-6,11.89-9.52,17.56-.83,1.31-3.31,1.31-3.61-.49-4.47-25.88-3.17-52.84,1.15-78.67a293.64,293.64,0,0,1,8-35.51c-11.35,17.88-20.25,37.32-27.8,57.49-.55,1.48-2.77,2.14-3.6.48-18-35.07-19.68-73.41-10.18-109.55-7.55-36.64-8.51-77.21,7.24-110.4-27.43,32.8-49.58,73.58-46.44,116.74,4.77-5.75,7.89-12.82,12.46-18.74,1.26-1.66,4.31-.83,3.62,1.51-17.9,59.15-3.85,116.25,17.85,172,3.05-8.23,6-16.73,13.11-22.29,1.26-1,3.44-.51,3.38,1.4-2.19,66.66,15.29,130.79,46.9,189-1.63-24.59-3.2-53,14.33-71.77,1.27-1.39,3.21-.21,3.37,1.38,3.25,33.08,9.06,66.57,23.59,96.78,14.24,29.55,34.92,55.49,58.34,78.31,48.86,47.67,110.61,81.08,180.13,77.65-27.2-24.09-54.63-48.84-75.58-78.7A201.62,201.62,0,0,1,479,1421.34Z" transform="translate(-29.45 -40.6)"/><path class="cls-6" d="M384.21,870.22c-.15-.15-.34-.26-.48-.42a2,2,0,0,1-2.46,1.72c-46.77-7.76-68.33-50-86.54-90.59a94.75,94.75,0,0,0,0,11.43c14.33,43.87,56.4,74.88,97.9,96.27A141.28,141.28,0,0,1,384.21,870.22Z" transform="translate(-29.45 -40.6)"/><path class="cls-6" d="M286.41,773.12a106.59,106.59,0,0,1-.77-12.53c-.65-1.45-1.33-2.88-2-4.32C284.28,761.91,285.29,767.54,286.41,773.12Z" transform="translate(-29.45 -40.6)"/><path class="cls-6" d="M187.29,754c-.54-.89-1-1.77-1.54-2.63,4.22,27.52,12.7,56.16,34.39,71.65-2.68-22.5-6.09-44.92-5.75-67.57-.63-1.85-1.28-3.71-1.91-5.56a351.73,351.73,0,0,0-2.72,42.66,2,2,0,0,1-3.67,1c-12.17-18.45-14.57-40.18-14.6-61.79-.24,1.69-.44,3.37-.59,5.06.1.39.21.78.33,1.14a1.73,1.73,0,0,1-.51,1.91A74.13,74.13,0,0,0,191,753C191.2,755,188.24,755.49,187.29,754Z" transform="translate(-29.45 -40.6)"/><path class="cls-6" d="M1594.16,2030.67c-14.12-10.69-24.54-32.05-29.9-50.32a125.64,125.64,0,0,1-6.93-26.58c12.11-15.53,15.34-34.75,15.16-55.18,0-3.54-.09-7.56-.18-11.77a88.37,88.37,0,0,0,6.93-26.72c14.66-23.48,15-50.91,11.16-78.47-2.63-19.1-9.68-37.26-17.73-54.57a87.85,87.85,0,0,0-7-11.93c.45.18.86.52,1.36.68a20.12,20.12,0,0,0,10.66,2.53c.06,0,.12-.09.18-.12a39.27,39.27,0,0,0,8.53,0c-18.72-7.39-31.92-25.51-39.09-45.67-7.66-18.39-12.13-39.4-15.39-55.47,1.51-1.5,2.81-3.47,2.93-4.53,4.83-43.91-4.32-82.83-22.74-117.63a248.1,248.1,0,0,0-47.61-91.49c-.35-.41-.74-.77-1.06-1.2,2-6.61-.77-13.41-4-19.61a3.3,3.3,0,0,0,.59-2c-4.82-30.19-21-55.74-43.64-75.85-6.6-5.87-13.26-11.06-19.84-16,0,0,0-.06,0-.12-21.77-29.44-33.7-67.09-54.75-97.57a3.83,3.83,0,0,0,.42-1.87,84.76,84.76,0,0,0-9.39-29.08,4.24,4.24,0,0,0,.62-1.87c-.94-49.55-44.29-93.34-89.44-109.07a73.17,73.17,0,0,0,10.75-2.62c2.69.23,5.47.32,8.35.29a4.76,4.76,0,0,0,3.22-2.2c-8.79-2-17.35-4.09-25.13-8.19a91.58,91.58,0,0,1-26.06-11.49c1.81-1.25,3.55-3.65,3.26-5.19a105.48,105.48,0,0,0-11.58-29.45,4.69,4.69,0,0,0,1.39-3.3c-6.18-50.6-47.69-85-90.36-107.81,10.54,1.36,21.14.86,30.68-4.07a103,103,0,0,1-15.16-10.87c-18-5.63-35.53-11.8-52-21.67-1.16-.7-2.22-1.47-3.38-2.22,1-.17,1.93-1.72,1.27-2.49-22.88-28.23-23.15-62.65-31-96.61-6.37-27.64-20.17-50.7-34.67-74.48h-.06a110.13,110.13,0,0,0,2.63-14.64,64.15,64.15,0,0,0-9.56-40.27c9-11.85,9.12-27.71,7.78-42.62,15.55-21.33,6.19-59.86,1.63-82.75-6.9-34.49-25.4-59.89-50.27-80.6-10.54-5.13-20.58-11.43-32.18-13.83,26.17,24.69,46.63,52.85,55.24,88.54.45,1.85-1.92,3.45-3.33,1.91a96.94,96.94,0,0,0-19.26-16.33c24.13,33,28.28,79.45,23.63,118.74-.21,1.82-2.63,2.9-3.67,1a42.21,42.21,0,0,0-4.74-6.75c3.61,9,5.81,19,7.42,25.82,2.53,10.63,4.16,20.93,3.09,31.87-1.36,13.78-6.79,26.9-9.09,40.53-.32,2-3.36,1.81-3.79,0-3-11.54-8-22-14.05-32,11.66,45.21-6.67,98.43-31.78,135.33a2,2,0,0,1-3.68-1c0-14.79,0-29.76-2.92-44.27-7,56.3-51.25,94.89-92.58,130.69a2,2,0,0,1-3.11-2.4c5.73-12.76,11.75-25.31,14.68-38.8-11.31,24.93-29.63,50.26-55,59.51-1.73.62-3-1.49-2.24-2.9a173.79,173.79,0,0,0,15.18-39.26c-16.66,22-35.06,39.14-62.85,47.49-25.34,7.65-57.4,14.95-81.65.59-23.75,10.22-49.59,16-75.15,18.57-22.17,2.26-44,2.38-65.31-5.08-18.55-6.51-35.23-16.48-50.74-28.33,2.44,8.95,7.62,16.56,14.18,23.4a2,2,0,0,1-1.42,3.41c-22.89,1.64-47.32-3.69-68.07-13.25a110,110,0,0,1-21.76-13,149.8,149.8,0,0,0,8.49,16.33c1.07,1.81-1,3.54-2.72,2.71-39.45-19.53-80.38-47.73-99.66-86.82,4.06,18.59,12.6,36.07,21.3,53.47.67,1.39-.48,3.59-2.23,2.88-30.67-12-57.48-31.7-76.34-58.91A207.07,207.07,0,0,1,218.46,766c.64,20.46,3.79,40.72,6.13,61.12.18,1.53-1.79,2.41-3,1.72-26.91-16.37-36.09-50.08-40.46-81.58.73,16.38,3.1,32.71,3.87,49.2a2,2,0,0,1-2,2c-21.11-1.51-38.12-18.92-50-37.41a156.85,156.85,0,0,0,47.69,58.12c12.29,17,11.63,40.07-11.13,50.74-.93.46-3.4,2.88-1.83,3.94,9.78,6.78,23.74,2.62,33.1-3.17,17.56-10.92-3.61,10.1-7.4,14.93a299.27,299.27,0,0,0-29.37,44.33c-21.37,39.56-28.31,99.45-13.48,146.26-4.76-34.71,3-71.85,19.87-101.77,1.19-2.07,4-.57,3.64,1.52-1.86,11.59-3.82,23.19-4.1,34.81,10-58.14,60.45-99.06,111.92-125,2.26-1.12,4.25,2.18,2,3.42-26.06,14.53-48.06,37.66-63.17,63.38,35.9-9.86,64.88-35.6,93.81-57.9,1.72-1.35,3.42,1.14,2.69,2.73-6.87,14.67-17,27.13-27.26,39.52,18.47-12.27,34.52-28.05,48.88-44.9a2,2,0,0,1,2.78,0c1.87,1.84,3.7,3.69,5.65,5.43,34.91,31.57,81.32,47,127.23,53.5,46.78,6.7,94.86,5.72,141.61-1,29.55-4.25,58-12.44,87-19.26,25.41-6,53.13-12.39,79.35-8.79,22.38,3,41.72,11.76,52.91,32.27A128.57,128.57,0,0,1,845.13,978c1.66-24.93-6.16-52.28-9.44-75.19a2,2,0,0,1,3.81-1.07c17.21,43.08,47.82,83.49,89.21,105.71-22.74-26.33-34.08-59.11-45.56-91.81-.63-1.8,2.07-3.45,3.31-1.92,16.09,19.92,37.43,33.79,56.34,50.72,18.48,16.52,33.71,36.83,45.75,58.5a259.25,259.25,0,0,1,13.77,29.06,562.43,562.43,0,0,0-26.24-100.77c-.74-2.13,2.58-3.48,3.62-1.49,17.67,33.61,31.29,73.08,59.62,99.65-10.33-32.49-25.46-63.55-29.66-97.7-.3-2,2.69-2.53,3.64-1,20.72,33.47,52.4,57.81,74.88,89.9,16.31,23.32,29.13,49.63,39.61,76,7.64,19.22,15.34,41.66,19.48,64.55,4.86-19.22,5.54-40,1.84-57.92-.51-2.48,3.28-3.52,3.82-1,8.49,41.94,21,83.52,45.24,119.07-5.36-33.06-10.37-66.13-10.57-99.75,0-2.62,3.64-2.43,4,0,7.58,59.2,63.69,92.77,93.12,140.4,28.57,46.2,49.68,104.19,46.3,159.18a2,2,0,0,1-3.7,1c-6.33-10.9-13.14-21.39-20.31-31.65,8,15.23,13.71,31.44,14.13,48.45a2,2,0,0,1-3.41,1.41c-23.71-27.24-47.76-52.62-81.42-66.47,17,24.1,39.79,43.58,51.13,71.46.71,1.79-1.54,2.84-2.9,2.25-52.17-23.9-99.39,10-127,53.58-17.32,27.26-31.5,60.21-36.89,93.62q7-10.74,14.89-21c53.77-70.24,167.22-117.54,242.48-50.82,67.3,59.66,79.44,162.42,77.6,247.16a2,2,0,0,1-3.88.52c-5.89-21.58-14.24-41.67-26.46-59.9,9.94,22.58,17.29,46.65,18.47,71.22.09,1.63-2.28,2.77-3.38,1.41-14.12-17.85-24.33-38.33-41.68-53.07,13,28.08,21.4,58.81,19.27,90a163.57,163.57,0,0,1-4.32,27.88c2.31-5.32,4.5-10.63,6.66-15.74.65-1.55,3.35-1.16,3.61.47,5,32.39-3.4,66.87-16.25,96.57-12.7,29.32-31.3,59.48-59.81,75.72-1,.56-2.72.12-2.9-1.19-2.07-15.17-.59-30.31.53-45.47-12.82,48-51.87,87-90.57,116.86-1.39,1.08-3.37-.71-2.9-2.24,5.1-15.71,8.26-31.56,5.63-47.7-5.39,18.86-11.49,37.13-23.92,52.87a313,313,0,0,1-55,53.73c-22.83,17.52-47.67,32.25-70.17,50.22-10.93,8.73-21.85,17.81-30.71,28.79-8.17,10.16-15.24,21.13-22.91,31.68a2,2,0,0,1-3.41,0c-20.57-33.17-10.27-75.88.42-110.8,7-22.86,16.87-44.7,25.64-66.89q-13.11,16.66-26.91,32.76c-1.37,1.59-3.77-.11-3.32-1.92,5.24-21.14,9.86-43.85,12.23-66.87a1.8,1.8,0,0,1-.48-2.49c.3-.4.54-.82.83-1.22,4.06-43,.21-86.86-21.55-123.39,3.7,17.42,4.08,36,3,53.45-1.27,19.59-3.76,40.86-14.09,58-1.1,1.85-3.47.86-3.68-1-2.39-18.41-8.52-35.64-16.34-52.24,13.44,62.35-9.5,130.73-32.45,187.81-11.84,29.54-26.38,58-41.66,85.86-3.19,5.91-6.76,12.34-10.8,18.58-2.87,28.43-9.68,55.86-27.63,79.26-21,27.42-54.21,50-89.65,49.5a2,2,0,0,1-2-2c0-14.76,10.18-27.61,21.85-37.06-14.54,6.25-26.2,16.11-35.48,29.89-4.64,7-12.85,20.59-23.11,19-11.11-1.73-15.31-16.12-14.9-25.84.36-8.34,3.44-15.43,7.78-21.87-6.72,6.84-12.32,14.76-17.72,23-3.17,4.87-8.15,16.09-15.09,16.8-8.72.89-13.81-10.6-15.17-17.59-1.66-8.72,6.87-17.36,10.69-24.23,5.65-10.2,5.12-22.46,9.94-33.13,5.42-12.07,13.05-22.76,19.4-34.3a108.67,108.67,0,0,0,7.52-87.17c-7.46,25-16.52,49-31.15,70.85a2,2,0,0,1-3.67-1c-2-61.37-15.75-120.19-51.75-170.05a1.59,1.59,0,0,1-1.37-1c-.26-.57-.44-1.19-.69-1.77-1.91-2.57-3.85-5.19-5.92-7.74-1.59-1.95,1.2-4.76,2.79-2.8.3.39.58.79.89,1.16-.68-6.43-.07-13.15.57-19.38,1.19-12.06,2.93-23.91,3.1-36,.4-23.92,3.94-55-10.12-76.1a45.36,45.36,0,0,0-3.15-4.22c-1.62-2,1.13-4.77,2.79-2.81a46.82,46.82,0,0,1,3.1,4.13c.57.86,1.08,1.72,1.62,2.59.2.31.41.62.6,1,3.95,6.66,6.79,13.93,9.63,21.23-.54-21.57.43-43.2-1.64-64.69a352.34,352.34,0,0,0-10.21-56.82c-6.89-26-16.36-54.65-33.53-76.46a69.72,69.72,0,0,1-13.21-13.93c-1.2-1-2.4-2.1-3.64-3.09s-.62-2.43.53-3a2.21,2.21,0,0,1,1.56-1.3c-15.67-19.56-35.43-37.4-57.72-46.69,10.32,18.74,24.94,34.87,37,52.4,12.77,18.54,22,38.89,29.78,59.93.86,2.26-2.38,3.22-3.61,1.54-12.61-17.43-29.82-30.28-47.55-42.08,12.17,19.78,26.63,38.83,31.65,61.9,3.88,17.82,5.3,36.65,5.83,54.88.58,18.72.58,40.85-3.77,61.37,5.28-10.6,10.23-21.36,13.66-32.79a2,2,0,0,1,3.88.5c1,50.72,4.8,101.38-9,150.35,7.23-15.62,9.9-33.6,21.48-46.93,1.18-1.34,3.34-.2,3.4,1.41,1,42.09-13,81.33-24,121.34-7.61,27.38-14,54.88-16.85,82.87,6.74-18.63,12.32-37.76,24.31-53.94,1-1.36,4-1.18,3.7,1-5.79,44.09-18.74,85.82-7.8,130.26,7.48,30.39,13.63,59.36-2,88-10.39,19.08-24.54,37.29-41.52,51.26,22-4.08,43.71-13.41,58.89-30,10.94-11.93,20.28-26,27.94-40.26a33.51,33.51,0,0,0,3.07-8.31.29.29,0,0,0,.18-.12c4.17-1.08,8.2-3.21,12.67-3.33a41.56,41.56,0,0,1,5.55.3c2.06.19,3.67,1.64,5.6,2,2.57.44,3.95,1.21,6.08.86-9.1,13-11,30.08-12.3,45.62-2.93,35.09,31.63,34.75,55.94,26.28a27.32,27.32,0,0,0,7.65,5.76c13.4,6.69,35.62,4.9,48.93-.89.15-.09.36-.33.53-.46,21,6.72,53.53-4.41,73.93-13.2a2.15,2.15,0,0,0,1.45.26c29.26-3.83,48-33,60.14-57.05a129,129,0,0,0,6.39-15.74c.3,0,.56.06.86-.13,36.24-26.79,86.16-12.5,126.39-6.59a3,3,0,0,0,2-.62,13.59,13.59,0,0,1,2.22,2.21,20.72,20.72,0,0,0,3.67,11.19c5.18,7.33,16,8.82,24.1,10.4a62.89,62.89,0,0,0,29.52-.8c14.18,5.72,26.2,5.75,40.89.29,8,2.93,17.94,2.59,26.64,1.42,48.79,10.29,106.65,8.07,150.79-15.21,17.41-9.16,41.92-30.18,44.53-52.49,29.55-8.69,49.33-52.54,53.2-82.09a120.52,120.52,0,0,0,19.46-18.87c29-6.14,51.57-38.82,61.28-72.42,17.38,4.28,31.3-28.29,36.63-40.71,10.66-24.66,17.47-59.23,9.35-87.36,6.64,5.16,13.74,8.66,20.85,9.48A3.92,3.92,0,0,0,1594.16,2030.67Z" transform="translate(-29.45 -40.6)"/><path class="cls-6" d="M527.68,2467.54c.62.13,1.28.21,1.91.35a40,40,0,0,0,12.13-4.23c-2.79-1.85-5.38-3.7-7.67-5.42-9.36-7-16.18-16.16-21.23-26.27-5.69-5.23-8.19-11-8.47-17,.28,9.49,1.84,18.87,5.92,27.52C514.67,2451.77,520.86,2459.9,527.68,2467.54Z" transform="translate(-29.45 -40.6)"/><path class="cls-6" d="M470.54,2469.64c11.47,4.12,24.23,3.66,36.39,1A77.83,77.83,0,0,1,480,2458a66.26,66.26,0,0,1-17.44-18.72,23.16,23.16,0,0,1-2.61-.22c-6-.78-9.83-3-12-6C451.68,2447.11,459.7,2460.36,470.54,2469.64Z" transform="translate(-29.45 -40.6)"/><path class="cls-6" d="M447.09,2400.86a60.59,60.59,0,0,0-1.32,20.71,45.9,45.9,0,0,1,3.9-12.43C448.81,2406.4,448,2403.65,447.09,2400.86Z" transform="translate(-29.45 -40.6)"/><path class="cls-6" d="M506.87,2444.46c-4.53-10.41-6.25-21.14-6.44-32.05-6.69,14.17-17.71,26-33.58,26.9a56.06,56.06,0,0,0,15.09,15.26c10,6.77,22,12.26,34.11,13.64,1.46-.46,2.88-.92,4.29-1.41a2.39,2.39,0,0,0,.83-.71c-.52-.62-1.07-1.23-1.6-1.87C514.68,2458.09,510,2451.68,506.87,2444.46Z" transform="translate(-29.45 -40.6)"/><path class="cls-6" d="M1100.88,2047.19a2,2,0,0,1,2.4-.7c1-2.72,1.92-5.46,2.72-8.27a367.73,367.73,0,0,0,8.64-38.45,198.38,198.38,0,0,1-51.1,48.22,471.21,471.21,0,0,1-10.48,60.74q15.11-17.89,29.28-36.52a260,260,0,0,0,11.4-39.38c.51-2.5,4.3-1.43,3.82,1.05a227.13,227.13,0,0,1-7.61,28.29C1093.62,2057.21,1097.29,2052.24,1100.88,2047.19Z" transform="translate(-29.45 -40.6)"/><path class="cls-6" d="M1053.39,2258.07c15.07-20.83,29.07-40.09,49.56-56.4,20.19-16.17,42-29.88,62.92-45,21.37-15.51,41.39-33.11,58.53-53.3,15-17.69,22.65-36.66,29-58-2.6,3.07-5.27,6-8.08,8.84-1.3,1.35-4,0-3.29-1.91,5.33-14.37,6.73-29,7.08-43.77-7.76,26.69-21.7,52.26-36.42,74.22-10.8,16.15-22.26,31.21-38.22,42.58-17.44,12.4-38.84,22.87-50.09,41.86a2,2,0,0,1-3.68-1,164.88,164.88,0,0,1,6.87-47.3c-27.24,26.68-46,64.57-51.78,101.88-.3,2-3.32,1.76-3.82,0-13.56-52.08,21.29-95,41.48-140.34-11.31,15.41-23.71,30-41.21,38.68a2,2,0,0,1-2.7-2.71c9.06-20.89,21.53-40.19,30.32-61.15q-7,9.67-14.24,19.18c-9,24.09-20,47.44-28,72C1046.67,2181,1034.44,2224.36,1053.39,2258.07Z" transform="translate(-29.45 -40.6)"/><path class="cls-6" d="M783.07,934.3c27.54,7.46,47.7,29.76,60.42,55.65.16-.7.34-1.38.49-2.09-2.52-10.29-5.81-20.31-10.78-29.47-31-56.78-112.89-28-161.42-15.8-4.5,1.15-9,2.19-13.56,3.2,49.18-4.15,105.7-.42,128,43.82-2.22-17.8-7.37-35.33-5.59-53.42A2,2,0,0,1,783.07,934.3Z" transform="translate(-29.45 -40.6)"/><path class="cls-6" d="M218.66,747c-.17,2.65-.23,5.33-.29,8a208.24,208.24,0,0,0,18.13,38.54c-12.63-22.1-19.56-47-19.09-72.5-1.43,6.58-2.63,13.13-3.65,19.74.47,1.66,1,3.3,1.54,5C216.42,744.62,218.79,745,218.66,747Z" transform="translate(-29.45 -40.6)"/><path class="cls-6" d="M265.66,828.94a164.52,164.52,0,0,0,46.73,29.83c-9.13-18.4-17.66-37.08-20.68-57.08a105.91,105.91,0,0,1,1.1,16.52,2,2,0,0,1-3.36,1.41c-22.84-23.72-27.11-55.59-38.36-85.07-4.13,31.34,4.8,62.88,16,92.05A1.75,1.75,0,0,1,265.66,828.94Z" transform="translate(-29.45 -40.6)"/><path class="cls-7" d="M854.81,499c-48.52-16.89-106.85-24.32-152.41,4.6-32.13,20.37-49.89,54.79-55.7,91.1v0c-.08.15,0,.21,0,.34-.17,1-.29,2-.41,3-.24.53-.59,1-.8,1.53-.4,1-.13,1.58.36,1.9a174.74,174.74,0,0,0-1.37,24.67c0,.86,1.32-.12,1.37-.67a228.31,228.31,0,0,1,3.36-25c4.72-4.08,9.37-7.56,15.94-7.81a1.09,1.09,0,0,0,.28-.08c37.9,20.73,88.93,19.41,127.5,3,37.28-15.8,37-61.11,47.58-93.87q5.82,1,11.61,2.09C854.13,504.23,857.34,499.9,854.81,499Z" transform="translate(-29.45 -40.6)"/><path class="cls-8" d="M766.2,595.48c-39.72,7.9-75.43-2.8-112-16.44,11.78-39.11,36.3-72.82,80.66-80.85,33.46-6.06,67.49-2.77,100.88,2.76C821.48,542,821,584.55,766.2,595.48Z" transform="translate(-29.45 -40.6)"/><path class="cls-9" d="M724.72,518c36.48-15.6,71.56-11.6,108.21-8.41.86-2.87,1.79-5.72,2.82-8.63-33.39-5.53-67.42-8.82-100.88-2.76-40,7.25-63.8,35.36-76.74,69.48C673.32,545.29,704.14,526.79,724.72,518Z" transform="translate(-29.45 -40.6)"/><path class="cls-10" d="M774.67,547.54c-.71,23-14.6,41.3-31,40.77s-29.14-19.57-28.41-42.6,14.61-41.28,31-40.76S775.39,524.55,774.67,547.54Z" transform="translate(-29.45 -40.6)"/><path class="cls-11" d="M738.49,520.57c-5.75-11.55-18.55-7.4-26-.4-6.72,6.35-12.49,19.07-5.65,27.16a7.1,7.1,0,0,0,5.36,2.54c4.3,1.31,10.58-1,14.27-3.75C733,541.22,743,529.67,738.49,520.57Z" transform="translate(-29.45 -40.6)"/><path class="cls-11" d="M699.38,563.48c-1.56,1.72-3.9,8.32.17,8.66,1.13,1.16,3.79-.25,4.46-2.9a24,24,0,0,0,.56-3.56C704.9,562.11,701.67,561,699.38,563.48Z" transform="translate(-29.45 -40.6)"/><path class="cls-7" d="M278.18,503.86c3.85-.71,7.73-1.41,11.58-2.09,10.58,32.76,10.33,78.07,47.58,93.87,38.61,16.4,89.62,17.72,127.53-3a.81.81,0,0,0,.25.08c6.6.25,11.24,3.73,16,7.81a235.93,235.93,0,0,1,3.38,25c0,.55,1.3,1.53,1.33.67a173.21,173.21,0,0,0-1.33-24.67c.47-.32.74-.9.34-1.9-.21-.55-.55-1-.79-1.53-.15-1-.24-2-.41-3,0-.13,0-.19,0-.34v0c-5.84-36.31-23.6-70.73-55.71-91.1C382.28,474.71,324,482.14,275.43,499,272.91,499.9,276.11,504.23,278.18,503.86Z" transform="translate(-29.45 -40.6)"/><path class="cls-8" d="M294.53,501c33.33-5.53,67.38-8.82,100.87-2.76,44.35,8,68.86,41.74,80.66,80.85-36.58,13.64-72.28,24.34-112,16.44C309.25,584.55,308.77,542,294.53,501Z" transform="translate(-29.45 -40.6)"/><path class="cls-9" d="M405.55,518c-36.46-15.6-71.56-11.6-108.21-8.41-.89-2.87-1.81-5.72-2.81-8.63,33.33-5.53,67.38-8.82,100.87-2.76,40,7.25,63.8,35.36,76.75,69.48C457,545.29,426.11,526.79,405.55,518Z" transform="translate(-29.45 -40.6)"/><path class="cls-10" d="M355.58,547.54c.74,23,14.59,41.3,31,40.77s29.11-19.57,28.4-42.6S400.4,504.43,384,505,354.86,524.55,355.58,547.54Z" transform="translate(-29.45 -40.6)"/><path class="cls-11" d="M403.86,546.12c3.63,2.77,9.91,5.06,14.25,3.75a7.09,7.09,0,0,0,5.34-2.54c6.82-8.09,1.08-20.81-5.64-27.16-7.49-7-20.28-11.15-26,.4C387.21,529.67,397.32,541.22,403.86,546.12Z" transform="translate(-29.45 -40.6)"/><path class="cls-11" d="M425.69,565.68a24,24,0,0,0,.57,3.56c.64,2.65,3.33,4.06,4.46,2.9,4-.34,1.74-6.94.15-8.66C428.57,561,425.36,562.11,425.69,565.68Z" transform="translate(-29.45 -40.6)"/><path class="cls-12" d="M657.7,813c-12.86,23.34-39.83,10.43-56.24,3.39-8.63-3.67-30.55-12-36.4-21.82,2.86-21.93.31-44.51-1.89-66.36-.11-1.1-1.65.19-1.68.83-1.54,21.86-3.82,46.66-.17,68.49-19.2,18.66-65.47,59.74-85.88,22.36-.78-1.42-2.75,1-2.43,2.13,14.61,48.79,72.44-3.29,89.55-22.38a3.12,3.12,0,0,0,1.27-.88c5.08,12.68,36.09,22.45,45.88,26.19,20.58,7.94,39.55,11,49.9-11.46C660.49,811.58,658.47,811.55,657.7,813Z" transform="translate(-29.45 -40.6)"/><path class="cls-13" d="M198.79,807.45a132.25,132.25,0,0,0,30.76,27.41,4.3,4.3,0,0,0,.22-2.57c-4.91-15.4-7.41-30.36-9-45.86.47,1.86,1,3.73,1.61,5.61,10,30.37,35.47,52.4,63.17,67.74a254.15,254.15,0,0,1-26.16-26.94c-16.64-14.45-30-32-36-52.78-.5-1.09-1-2.16-1.49-3.27a162.85,162.85,0,0,1-7.45-17.56c-2,20.95,1.59,42,5.58,62.64-15.21-17.47-25.37-40.48-30.05-64.18-3.59-15.29-4.84-30.74-5.27-46.33A152,152,0,0,0,182.94,753c-13.64-28.63-17.24-59.12-10.15-89.32.2-5,.6-10,1.23-15-16.52,40.95-13.79,85.79,11.91,123.51A138.5,138.5,0,0,0,198.79,807.45Z" transform="translate(-29.45 -40.6)"/><path class="cls-13" d="M768.77,901.85c32.59-7.67,65.57-30.66,77.13-62.19.53-1.45-2.19-.53-2.61.34-14.47,31.49-48.46,52.33-81.68,58.67a5.55,5.55,0,0,0-3.64,3.25C761.58,902,765.18,902,768.77,901.85Z" transform="translate(-29.45 -40.6)"/><path class="cls-13" d="M783.55,872c-20.7,27.25-51.19,29.6-82.7,30.09-2.87.06-8.33,5.55-3.46,5.66,34.2.92,67.9-5.36,88.29-35.6C786.54,870.81,784.12,871.22,783.55,872Z" transform="translate(-29.45 -40.6)"/><path class="cls-13" d="M487.4,908.62c-34.83-2.94-74.53-4.27-99.46-32.78-.6-.68-2.14,1-1.65,1.73a72.58,72.58,0,0,0,26,21.94c-39.88-4.72-85-29.21-97.6-69.87-.25-.74-1.58.44-1.4,1,10,43.23,59.33,73,101.52,71.71.41,0,.92-.5,1.26-1.08,21.24,9.76,46.85,11.92,69.32,11.65C487.06,912.92,489.52,908.78,487.4,908.62Z" transform="translate(-29.45 -40.6)"/><path class="cls-13" d="M547.5,915.43c-7.41-2.15-14.74-3.82-21.56-7.6-.66-.38-1.8,1-1.16,1.45a47.25,47.25,0,0,0,9.36,5.33c-5-1.21-10.23-1.82-15.22-3-7.88-1.81-14.51-6.15-22-8.84-.47-.18-1.3.93-.8,1.17,6.17,3.17,11.34,7.87,18,10.11,7.67,2.59,16,4.66,24.1,4.65.77,0,1.84-1.32,1.57-2.09a41.09,41.09,0,0,0,6.31,1.33C547.15,918.1,548.88,915.81,547.5,915.43Z" transform="translate(-29.45 -40.6)"/><path class="cls-13" d="M707.52,890.85c-17.47,15.34-45.48,18.77-67.63,21.5-1.71.2-4.14,4.26-1.49,4.23,23.18,0,53.57-7.05,70-24.56C709.26,891.15,708.52,890,707.52,890.85Z" transform="translate(-29.45 -40.6)"/><path class="cls-13" d="M664.17,900.41c-7.28,4-14.65,5.22-22.59,7.29-9.38,2.46-18.74,4.65-28.47,4.39-1.17,0-3.06,3-1.46,3.23,8.58,1.38,17.32-.93,25.61-3.26,9.5-2.67,18.74-4.67,27.1-10.14C665.09,901.44,665.38,899.73,664.17,900.41Z" transform="translate(-29.45 -40.6)"/><path class="cls-14" d="M632.52,687.05c-22.19,7.31-44.17,14.88-66.11,17.38-22-2.5-43.94-10.07-66.14-17.38a7.82,7.82,0,0,0-3,3.14c3.58,15.63,11.85,24.91,28.15,33.4,14.1,7.28,25.2,17,38.82,22.39.71,0,1.48-.13,2.22-.19s1.51.19,2.2.19c13.61-5.43,24.74-15.11,38.8-22.39,16.32-8.49,24.61-17.77,28.19-33.4A8,8,0,0,0,632.52,687.05Z" transform="translate(-29.45 -40.6)"/><path class="cls-12" d="M621,765.41c60.59,29.82,102.19,98.1,94.85,166.54-.15,1.34-2.11-.26-2.08-1.16,1.1-69.1-32.91-129.72-92.87-163.87C620.15,766.49,619.76,764.83,621,765.41Z" transform="translate(-29.45 -40.6)"/><path class="cls-12" d="M639.11,765.54c73.59,31.37,103.31,107.1,111,182.45.07,1-1.26.24-1.32-.4C738.57,873.46,711.47,799.51,639,766.66,638.41,766.4,638.18,765.12,639.11,765.54Z" transform="translate(-29.45 -40.6)"/><path class="cls-12" d="M666.51,730.28c87-11.43,180.6,73.32,196.53,156,.3,1.56-1.8.25-2-.65C839.33,805.58,755.92,723,667.83,732.78,666.79,732.9,665.33,730.45,666.51,730.28Z" transform="translate(-29.45 -40.6)"/><path class="cls-12" d="M672.73,752.84C745,763.42,791.84,832.11,816.06,895.11c.53,1.44-1.28.85-1.66,0-26-62.54-70.11-126.63-141.15-140.53C672.59,754.44,671.75,752.69,672.73,752.84Z" transform="translate(-29.45 -40.6)"/><path class="cls-12" d="M712.93,783.51c44.18,44.78,64.5,97.08,66.75,160,0,1-1.58,0-1.67-.69-5.54-62-21.63-113.13-66-158.48C711.19,783.45,712.11,782.7,712.93,783.51Z" transform="translate(-29.45 -40.6)"/><path class="cls-12" d="M619.72,790c41.52,49.84,55.86,101.11,53.69,165.89,0,1.37-2-.22-2.07-1.13-1.8-64.47-11.82-112.18-52.75-163.75C617.66,789.88,618.75,788.87,619.72,790Z" transform="translate(-29.45 -40.6)"/><path class="cls-12" d="M634.06,732.57c19.9-30.41,66.62-31.09,98.65-30,43.14,1.54,85.06,21.95,116.25,50.89.79.73.55,2.22-.54,1.28-33.06-28.37-71.08-44.95-114.43-49.09-31.74-3-77.69.71-98.18,28.55C635.27,735,633.56,733.3,634.06,732.57Z" transform="translate(-29.45 -40.6)"/><path class="cls-12" d="M528.24,765.41c-60.59,29.82-102.18,98.1-94.86,166.54.15,1.34,2.11-.26,2.08-1.16-1.09-69.1,32.92-129.72,92.87-163.87C529.1,766.49,529.47,764.83,528.24,765.41Z" transform="translate(-29.45 -40.6)"/><path class="cls-12" d="M510.11,765.54C436.52,796.91,406.8,872.64,399.16,948c-.09,1,1.24.24,1.33-.4,10.17-74.13,37.26-148.08,109.72-180.93C510.81,766.4,511,765.12,510.11,765.54Z" transform="translate(-29.45 -40.6)"/><path class="cls-12" d="M482.71,730.28c-87-11.43-180.61,73.32-196.5,156-.3,1.56,1.77.25,2-.65,21.64-80.06,105-162.63,193.16-152.86C482.43,732.9,483.89,730.45,482.71,730.28Z" transform="translate(-29.45 -40.6)"/><path class="cls-12" d="M476.49,752.84c-72.26,10.58-119.11,79.27-143.31,142.27-.54,1.44,1.27.85,1.64,0,26-62.54,70.11-126.63,141.17-140.53C476.64,754.44,477.47,752.69,476.49,752.84Z" transform="translate(-29.45 -40.6)"/><path class="cls-12" d="M436.28,783.51c-44.17,44.78-64.49,97.08-66.73,160,0,1,1.58,0,1.66-.69,5.53-62,21.64-113.13,66-158.48C438,783.45,437.13,782.7,436.28,783.51Z" transform="translate(-29.45 -40.6)"/><path class="cls-12" d="M529.5,790C488,839.88,473.63,891.15,475.83,955.93c0,1.37,2.05-.22,2.05-1.13,1.81-64.47,11.82-112.18,52.75-163.75C531.56,789.88,530.5,788.87,529.5,790Z" transform="translate(-29.45 -40.6)"/><path class="cls-12" d="M515.19,732.57c-19.9-30.41-66.65-31.09-98.68-30-43.11,1.54-85.06,21.95-116.26,50.89-.78.73-.54,2.22.57,1.28,33.05-28.37,71.05-44.95,114.41-49.09,31.74-3,77.71.71,98.18,28.55C514,735,515.66,733.3,515.19,732.57Z" transform="translate(-29.45 -40.6)"/><path class="cls-2" d="M1889,2222.89c12.14,12.57,28,20.55,44.5,31a140.76,140.76,0,0,1-18.12-45.2c-6.33-17.05-9.38-35.47-11.57-53.94,25.63-80.24,11.19-169.5-36-238.43-21.94-32-58.06-65.36-94.33-80-15.6-6.31-35.44-14.49-52.64-12.84a75.36,75.36,0,0,0-22.94,4.06,13.19,13.19,0,0,0-1.31.31c13.45-6.57,30-8.26,44.5-10.47,2.76-.41,5.48-4.26,4.27-6.92-10.87-23.79-76.54-13.31-95.4-8-18,5.14-39.46,12.44-53.26,26,5.54-5.45,17.26-22.7,22.06-35.22.71-1.9-.57-3.73-2.58-2.9-22.91,9.71-49.24,33.72-58.62,59.09-15.46,10.8-40.33,16.36-57.79,19.54a152.18,152.18,0,0,1-14.66,4.11c-8.59,1.92-17.26,4.51-26.08,5-.3,1-.33,2,.59,2.5,14.42,9,28.75,9.21,45.33,7.31,1.06-.13,1.89-.22,2.84-.31-7.73,5.78-15.07,11.93-22.27,18.42-26.44,23.86-41.27,56-46.92,90.74a2.35,2.35,0,0,0,.17,1.07,3,3,0,0,1-.38.49,162.54,162.54,0,0,1-39.56,27.33c-19.12,13.64-41.62,23-64.39,23.21-.3,2,.38,3.64,2.78,3.36,13.56-1.72,25.11.37,36.63.8a409.8,409.8,0,0,0-69.31,35c-15.28,9.68-52.91,30.49-53.86,52.05-.09,1.77.77,2.84,2.58,2.84,1.09,0,2.1-.21,3.1-.31-27.32,16.05-49.47,36.73-78.48,50.67-2-.43-3.91-1.05-5.9-1.54-14.12,1.81-30.14-3.93-44.32-7.3,10.45,9.23,19.42,20.2,30.23,29.09a76.68,76.68,0,0,0,27.95,14.76c-7,1.22-14.06,2.53-20.9,3.24-19,2-37.37,6.7-55.49,12.85-31.79,10.83-60.34,30.86-79,58.76-21.67,12.6-41.36,28-56.07,47.56-2.22,2.94-1.19,9,3.22,5.61,9.15-6.91,20.22-11.1,31.15-14.64-.36.3-.68.54-1,.85-9.44,4.63-19.83,13.34-28.57,21.7-6.9,5.06-13.62,10-19.6,14.55-43.4,33.41-91.08,36.58-140.42,16.95-1.13-.09-2.22-.19-3.35-.25-1.9,1.12-3.26,4.49-2.53,6.07,4.66,10.33,13.22,19.81,23.34,27.12h-.8c-18.41.13-36.18,1.88-54,6.28-24.8,6.14-48.31,17.2-71.27,28.67a222.16,222.16,0,0,0-16.77,18.11,245,245,0,0,1,51.84-9.77c-17.79,8-32.23,17.48-46.66,34.44-12.14,14.29-32.66,43.26-28.81,63.41.61,3,3.94.56,4.93-.65a260.25,260.25,0,0,1,38.54-37.06c-9,7-16.5,22.46-20.94,33.77-7.38,18.64-23.25,57.85-13.42,78.24,1,2,3.77-.24,4.53-1.25,16.55-23,26.45-42.79,53.39-57.14,23.6-12.57,48.75-18.95,75.24-21.54,43-4.23,87.37,2.55,129.88,11.84-16.27,8.34-30.63,19.29-38.87,35.18-.79,1.51-1,5.05,1.64,4.54,56.48-10.37,106.57-21,160.43,8,43.67,23.48,99.51,32.3,148.09,38.57,90.54,11.59,190.53.71,271.56-44a2.19,2.19,0,0,0,1.48,1.91c25.34,10,58.33-8.51,75.59-27a64.63,64.63,0,0,0,6.6-8.6c-.09,18.61,5.45,35.48,21.79,44.35a2.16,2.16,0,0,0,1,.24c-2.9-16.73-2.79-33.66,3-50a5,5,0,0,1,.38-.65,93.65,93.65,0,0,1,3.2-9.08c.24.06.24.27.48.25a57.94,57.94,0,0,0,31.64-10.33c24.46,2.56,49.42-31.27,61.85-48.39a114.55,114.55,0,0,0,11-19.38c.44.61,1.33.81,2.78.38,58.39-17.3,125.09-70.86,141.2-134.09,5.89,17.51,15.42,37.56,31.77,37.93a5.18,5.18,0,0,0,2.72-.87c-5.36-10.31-8-21.74-8.7-33.39a88.78,88.78,0,0,1-3.91-22C1904.71,2306.68,1900.21,2264.79,1889,2222.89Z" transform="translate(-29.45 -40.6)"/><path class="cls-5" d="M1874.46,2272.47c-.33-1.82-2.79.58-2.64,1.82,2.66,21.5-7.52,45.21-9.83,66.72-1.54,14.52,3.17,28.84,9.39,42-11.05-9.17-17.71-30.47-21.32-43,.32-3.21.41-6.43.44-9.71a232.56,232.56,0,0,1-11.46,30.17c-18.41,57.63-78,103.79-132.58,123.6-.06,0-.12.09-.17.12,5.92-15.12,9.41-31.58,11.6-48.16a211,211,0,0,0-.65-33.26,413.29,413.29,0,0,1-13.15,68.72c-5.95,20.71-33,69.44-62.29,77.8,8.79-9.59,15.31-21.68,20.25-34.36-1.92,1.57-3.91,3.05-5.89,4.55a114.36,114.36,0,0,1-7.52,14,52,52,0,0,1-17.56,17h-.2c-1.4-.12-3,1-4.24,2.49-7.67,3.8-16.13,6.36-25.13,9.16,5.5-10.95,12.67-21.45,19.45-31.14-3.35,2.59-6.69,5.16-10.07,7.75-15.34,20.42-31.47,46.29-27.83,69.46-6-10.51-8.23-22.65-8-35.13a146,146,0,0,0,5.77-13.48c.06-.15.06-.28.12-.46a7.45,7.45,0,0,1-1.25-1.57,81.92,81.92,0,0,1-9.88,12.7c0,.15-.06.3-.06.44-13.92,26.67-43.41,45.08-75.35,42.11,1.8-1.1,3.7-2.11,5.5-3.22a4.46,4.46,0,0,0,1.54-2.91c-3.49.9-7,1.85-10.51,2.77-111.5,55.91-242.51,60.08-361.86,27.46-51.31-14-95.1-43.11-149.87-42.91-14.85.06-31.09,3.69-45.86,5.67-4.44.6-27,12-13.13-.39a135.65,135.65,0,0,1,18.73-14,5.36,5.36,0,0,1,1.64-1.56c10.91-6.9,21.76-13.94,32.82-20.61-6.4,2.15-12.82,4.47-19.13,7.11-70.85-19.35-149.6-24.46-216.56,7.83-24.62,11.87-40.37,28.19-52.33,52.58.47-1,2.4-29.88,4.11-38,5.22-24.71,16.58-46.41,32.75-65.68,1-1.1,2-5.51-.87-4.81-13.3,3.17-37.65,25.08-44.1,35.47-8.65,13.85,1.77-6.84,3.76-11.25a189.88,189.88,0,0,1,21.76-37.28c16.52-21.88,38-29.52,62-38.37,1.75-.62,5.9-7.12,2.2-7.25a225.83,225.83,0,0,0-46.27,3.33c25.72-12.3,52-23.29,80.28-28.51,11.11-2,26.34-1,41.2-1a230.24,230.24,0,0,0,25.51-7.65,144.7,144.7,0,0,1-15-.24c-10.47-5.81-20.46-13.53-27.39-22.69,41.33,16,77.35,11.35,117.85-10.16a127.36,127.36,0,0,0,17.34-11.41,132,132,0,0,0-22,46A186.34,186.34,0,0,1,949.94,2416c13.68-29.89,36-51,62.47-72.43q3.83-6.11,7.08-12.63c-10.63,3.86-21.68,7.09-32.51,10.25a2.27,2.27,0,0,0,.32-.36c20.85-14.49,4.15,1.94,20.91-13.66a171.37,171.37,0,0,1,20.49-16.08,3.3,3.3,0,0,0,2-1.29c.06-.12.18-.21.21-.28,15.39-10.16,32.39-18.31,49.59-25.33,4.85-3.36,9.8-6.62,14.86-9.71a372.25,372.25,0,0,0-54.36,22.63c20.79-23.33,46.4-38.57,76.8-49.08,14.6-5.07,29.88-7.64,45.15-9.76.57-.07,1.31-.18,1.9-.27,5.89-2.23,11.81-4.38,17.85-6.08,10.51-3,21.26-4.66,31.89-6.81-18.71-2.56-34.85-7.15-50.84-19.64a109.47,109.47,0,0,1-10.68-9.72,135.52,135.52,0,0,0,15.18,4.15c-.29,1.11-.14,2.06,1.19,1.76,1-.25,1.92-.68,2.9-.93,21.4,3.91,44.06,2.91,62.41-4.58a129.49,129.49,0,0,0,11-9.56c-15.28,8.91-36.21,11.06-57,8.47,14.83-6.43,28.19-15.44,41.48-25.52s26.53-18.92,40.27-27.46a133.32,133.32,0,0,0,16-17.74c-8,1.57-23.06,4.19-20.54,1.56,14.06-14.44,32.06-25.87,48.91-36.78,23.24-15,48.38-26.73,74.08-37a52.66,52.66,0,0,0,6.75-1.66q8-4.8,15.6-10.2c-1,.34-2,.7-3,1-.24-.58-.68-.89-1.87-.45-10.51,4.06-20,4.74-29.28,4.25a158.11,158.11,0,0,0,72.78-49.71c2.48-6.07,4.73-12.22,6.87-18.38.17-1.17.23-2.33.35-3.47a5.72,5.72,0,0,0-1.18.94c-18.06,19.91,1.68-23.63,2.54-25.45,11.93-26.09,34.76-45.83,57.74-62.41,5.39-.64,3.7-.58,1-.7,2-1.48,4.15-3,6.22-4.46,1.63-1.14,3.35-5.92-.21-4.82-16,4.79-26.29,6.25-43.1,4.5-23.75-2.53-8.83-2.47-2.85-2.81,19.49-1.1,38-6.62,56.17-13.42a117.21,117.21,0,0,0,22.59-10.88,53.59,53.59,0,0,0-1.93,9.14c-.05.4.06.6.3.68,1-2.1,2.07-4.19,3.17-6.23a62.88,62.88,0,0,1,2.6-6.53c.48-.37.89-.8,1.34-1.19a5.46,5.46,0,0,1,.68-1.61c3.46-5.18,6.81-10.42,10.21-15.66a7.13,7.13,0,0,0,.18-.8v-.06c.47-.62,1-1.19,1.54-1.79a.08.08,0,0,0,0-.06q.09,0,.09-.06c9.56-11.3,21.11-21.3,31-27.57,9-5.68.91,2.85-1,6.3-5.3,9.74-11,19.18-16.7,28.69a.05.05,0,0,1,0,0,165,165,0,0,1,21.7-8.48c12-7.68,23.84-14.37,39.29-18.62,16.49-4.55,67.12-12.67,85.92,1.39-18.5,4.12-35.44,9-52.11,18.62a168.49,168.49,0,0,1,36.36,2.64c22.41,0,42.81,5.73,66.23,19.64a261.06,261.06,0,0,1,82,77.17c41.33,60.6,52.73,142.46,35.73,214-.09-.78-.18-1.53-.24-2.29-2.42-22.56-4.7-44.84-8.58-66.87,0,1.75.09,3.5,0,5.26-.65,13.81-1.42,27.62-2,41.46,3,40.33,7,80.73,26.52,112.67-15.78-9.86-29.78-20.51-37.63-39.77a1.51,1.51,0,0,0-1.39-1.06c.5,8.92.39,17.87.77,26.78,11.37,39.12,18.89,77.84-11.16,111.55.12-2.68.29-5.39.65-8.19C1871.61,2306.52,1877.59,2289.32,1874.46,2272.47Z" transform="translate(-29.45 -40.6)"/><path class="cls-6" d="M1880.67,2194.18c7.85,19.26,21.85,29.91,37.63,39.77-19.54-31.94-23.53-72.34-26.52-112.67.56-13.84,1.33-27.65,2-41.46.09-1.76,0-3.51,0-5.26,3.88,22,6.16,44.31,8.58,66.87.06.76.15,1.51.24,2.29,17-71.57,5.6-153.43-35.73-214a261.06,261.06,0,0,0-82-77.17c-23.42-13.91-43.82-19.64-66.23-19.64a168.49,168.49,0,0,0-36.36-2.64c16.67-9.62,33.61-14.5,52.11-18.62-18.8-14.06-69.43-5.94-85.92-1.39-15.45,4.25-27.3,10.94-39.29,18.62a165,165,0,0,0-21.7,8.48.05.05,0,0,0,0,0c5.69-9.51,11.4-19,16.7-28.69,1.92-3.45,10-12,1-6.3-9.86,6.27-21.41,16.27-31,27.57l-.06.06-.06.06c-.5.6-1.07,1.17-1.54,1.79v.06a7.13,7.13,0,0,1-.18.8c-3.4,5.24-6.75,10.48-10.21,15.66a5.46,5.46,0,0,0-.68,1.61c-.45.39-.86.82-1.34,1.19a62.88,62.88,0,0,0-2.6,6.53c-1.1,2-2.16,4.13-3.17,6.23-.24-.08-.35-.28-.3-.68a53.59,53.59,0,0,1,1.93-9.14,117.21,117.21,0,0,1-22.59,10.88c-18.15,6.8-36.68,12.32-56.17,13.42-6,.34-20.9.28,2.85,2.81,16.81,1.75,27.06.29,43.1-4.5,3.56-1.1,1.84,3.68.21,4.82-2.07,1.46-4.17,3-6.22,4.46,2.7.12,4.39.06-1,.7-23,16.58-45.81,36.32-57.74,62.41-.86,1.82-20.6,45.36-2.54,25.45a5.72,5.72,0,0,1,1.18-.94c-.12,1.14-.18,2.3-.35,3.47-2.14,6.16-4.39,12.31-6.87,18.38a158.11,158.11,0,0,1-72.78,49.71c9.33.49,18.77-.19,29.28-4.25,1.19-.44,1.63-.13,1.87.45,1-.28,2-.64,3-1q-7.63,5.42-15.6,10.2a52.66,52.66,0,0,1-6.75,1.66c-25.7,10.23-50.84,21.91-74.08,37-16.85,10.91-34.85,22.34-48.91,36.78-2.52,2.63,12.55,0,20.54-1.56a133.32,133.32,0,0,1-16,17.74c-13.74,8.54-27,17.39-40.27,27.46s-26.65,19.09-41.48,25.52c20.79,2.59,41.72.44,57-8.47a129.49,129.49,0,0,1-11,9.56c-18.35,7.49-41,8.49-62.41,4.58-1,.25-1.9.68-2.9.93-1.33.3-1.48-.65-1.19-1.76a135.52,135.52,0,0,1-15.18-4.15,109.47,109.47,0,0,0,10.68,9.72c16,12.49,32.13,17.08,50.84,19.64-10.63,2.15-21.38,3.82-31.89,6.81-6,1.7-12,3.85-17.85,6.08-.59.09-1.33.2-1.9.27-15.27,2.12-30.55,4.69-45.15,9.76-30.4,10.51-56,25.75-76.8,49.08a372.25,372.25,0,0,1,54.36-22.63c-5.06,3.09-10,6.35-14.86,9.71-17.2,7-34.2,15.17-49.59,25.33,0,.07-.15.16-.21.28a3.3,3.3,0,0,1-2,1.29,171.37,171.37,0,0,0-20.49,16.08c-16.76,15.6-.06-.83-20.91,13.66a2.27,2.27,0,0,1-.32.36c10.83-3.16,21.88-6.39,32.51-10.25q-3.24,6.51-7.08,12.63c-26.47,21.46-48.79,42.54-62.47,72.43a186.34,186.34,0,0,0-11.28,15.25,132,132,0,0,1,22-46,127.36,127.36,0,0,1-17.34,11.41c-40.5,21.51-76.52,26.16-117.85,10.16,6.93,9.16,16.92,16.88,27.39,22.69a144.7,144.7,0,0,0,15,.24,230.24,230.24,0,0,1-25.51,7.65c-14.86,0-30.09-1-41.2,1-28.3,5.22-54.56,16.21-80.28,28.51a225.83,225.83,0,0,1,46.27-3.33c3.7.13-.45,6.63-2.2,7.25-24,8.85-45.53,16.49-62,38.37a189.88,189.88,0,0,0-21.76,37.28c-2,4.41-12.41,25.1-3.76,11.25,6.45-10.39,30.8-32.3,44.1-35.47,2.88-.7,1.82,3.71.87,4.81-16.17,19.27-27.53,41-32.75,65.68-1.71,8.09-3.64,37-4.11,38,12-24.39,27.71-40.71,52.33-52.58,67-32.29,145.71-27.18,216.56-7.83,6.31-2.64,12.73-5,19.13-7.11-11.06,6.67-21.91,13.71-32.82,20.61a5.36,5.36,0,0,0-1.64,1.56,135.65,135.65,0,0,0-18.73,14c-13.9,12.44,8.69,1,13.13.39,14.77-2,31-5.61,45.86-5.67,54.77-.2,98.56,28.89,149.87,42.91,119.35,32.62,250.36,28.45,361.86-27.46,3.5-.92,7-1.87,10.51-2.77a4.46,4.46,0,0,1-1.54,2.91c-1.8,1.11-3.7,2.12-5.5,3.22,31.94,3,61.43-15.44,75.35-42.11,0-.14.06-.29.06-.44a81.92,81.92,0,0,0,9.88-12.7,7.45,7.45,0,0,0,1.25,1.57c-.06.18-.06.31-.12.46a146,146,0,0,1-5.77,13.48c-.27,12.48,1.92,24.62,8,35.13-3.64-23.17,12.49-49,27.83-69.46,3.38-2.59,6.72-5.16,10.07-7.75-6.78,9.69-14,20.19-19.45,31.14,9-2.8,17.46-5.36,25.13-9.16,1.22-1.48,2.84-2.61,4.24-2.49h.2a52,52,0,0,0,17.56-17,114.36,114.36,0,0,0,7.52-14c2-1.5,4-3,5.89-4.55-4.94,12.68-11.46,24.77-20.25,34.36,29.28-8.36,56.34-57.09,62.29-77.8a413.29,413.29,0,0,0,13.15-68.72,211,211,0,0,1,.65,33.26c-2.19,16.58-5.68,33-11.6,48.16,0,0,.11-.09.17-.12,54.57-19.81,114.17-66,132.58-123.6a232.56,232.56,0,0,0,11.46-30.17c0,3.28-.12,6.5-.44,9.71,3.61,12.5,10.27,33.8,21.32,43-6.22-13.18-10.93-27.5-9.39-42,2.31-21.51,12.49-45.22,9.83-66.72-.15-1.24,2.31-3.64,2.64-1.82,3.13,16.85-2.85,34.05-4.92,50.79-.36,2.8-.53,5.51-.65,8.19,30-33.71,22.53-72.43,11.16-111.55-.38-8.91-.27-17.86-.77-26.78A1.51,1.51,0,0,1,1880.67,2194.18ZM1765.26,2000.6a2,2,0,0,1-2.9,1.19c-18.65-11.93-28.12-33.06-45.56-46.13,15.36,22,30.43,50,23.45,76.56a2,2,0,0,1-3.32.89c-13.68-13.88-25.79-28.66-41.75-39.58,31.51,49.49,18,107.89,1.54,161.33-.53,1.76-3.37,1.95-3.82,0-5.83-25.51-11.37-51-19.18-76,5.56,49.23-9.71,98.46-32.57,142.31a2,2,0,0,1-3.61-.46,530.51,530.51,0,0,0-19.31-56.86c2.7,23.75,3.62,47.64-.59,71.34a2,2,0,0,1-3.31.89c-12.38-13.22-17.74-31-28.46-45.52,4.77,38.22-6.21,77.94-32,107.47-1.54,1.76-4.12-.47-3.11-2.38,6.93-13.13,9.27-26.78,9.77-40.73-5.3,23.35-16.55,45.69-29.58,65.14-19.09,28.51-43.4,55.17-73.72,71.87-1.6.89-4-1-2.72-2.69,15.57-20.79,24.48-47.05,28.06-74-19.33,25.58-47.19,45.68-74.25,62.17-23.39,14.26-47.67,27.12-71.38,40.85-22,12.71-47.61,27.53-61.2,50-1.6,3.33-3.23,6.66-5,9.91-1,1.94-4.44.56-3.61-1.51.09-.17.15-.3.24-.48h0a.59.59,0,0,1,.12-.22,72.46,72.46,0,0,1,4.41-8.76c10-20.77,17.47-42.71,30.32-61.87-36.12,24.25-62.53,59.54-89.74,93-1.07,1.28-3.58.27-3.38-1.39a167.93,167.93,0,0,1,12.11-44.14c-28.42,23.37-58.71,44.22-92.43,59-26.92,11.77-55.93,20.47-85.18,23.86-26.29,3.07-56.42,3.16-78.71-13.26a2,2,0,0,1,0-3.42c6.17-4.06,12.51-7.88,18.87-11.65-43,3.18-85.12-8.26-104-47.59a2,2,0,0,1,1.72-3c33.16,1.06,63.21-1.47,92.25-19,27.72-16.78,55.19-33.78,78-57-22.06,6.41-41.77,18.37-62.44,28.25a2,2,0,0,1-2.7-2.72c21.14-36.17,54.33-62.8,90.22-83.5,28.72-16.52,60.78-23.89,91.9-33.94-16-3.36-31.47-10.23-45.63-18.27a2,2,0,0,1,.48-3.63c17.44-4,35.2-4.13,53-4.88,17.5-.74,34.26-3.07,51.08-8.07a262.67,262.67,0,0,0,39.17-14.85c-13.09,1.2-26.17-.29-38.23-5.48-1.53-.66-1.09-2.67,0-3.43,29.61-21.17,63.75-34.76,94.24-54.58-15.63-5.49-33-2.07-49-6.38a2,2,0,0,1-.47-3.61c22.15-17,49.33-21.2,76.24-25.17a51.79,51.79,0,0,1-28.16-20.92c-1-1.57.62-3.22,2.22-2.91a129.8,129.8,0,0,0,55.93-1.76c-13.17-8.52-23.09-21.41-24.13-35.89a2,2,0,0,1,2.46-1.89c22.17,7.22,43.49,5.93,64.63,1.28,23.57-9.56,44-27.29,55.22-49.94-11.82,8.6-25,16.12-39.94,15.63a2,2,0,0,1-.53-3.88c35.64-11.4,55.54-44.29,63.86-78.95-9,12.56-18.12,25-29,36.11-1.51,1.51-3.64-.06-3.31-1.93,4.94-29.77,15.36-59.11,35.38-82.18,14.36-16.61,32-29.11,51.34-38.85,19.83-23.58,52.46-38.71,80.47-33.26,1.63.29,2,2.93.47,3.61-11.9,5.3-21.58,13.26-30.23,22.57,30.11-15.7,68.25-23.07,98.8-6.21,1.81,1,.86,3.57-1,3.67-19.13,1.36-36.24,8.11-52.41,17.42,30.38-7.37,62.44.61,84.5,24.72C1757.48,1930.4,1777.55,1968.58,1765.26,2000.6Z" transform="translate(-29.45 -40.6)"/><path class="cls-6" d="M1880.67,2194.18c7.85,19.26,21.85,29.91,37.63,39.77-19.54-31.94-23.53-72.34-26.52-112.67.56-13.84,1.33-27.65,2-41.46.09-1.76,0-3.51,0-5.26,3.88,22,6.16,44.31,8.58,66.87.06.76.15,1.51.24,2.29,17-71.57,5.6-153.43-35.73-214a261.06,261.06,0,0,0-82-77.17c-20.13-11.94-38-17.82-56.87-19.24,21.37,12.66,41,28.21,56.25,47.92,21.67,28,33,60.84,37.1,95.79.24,2.13-2.7,2.49-3.67,1-9.09-13.84-17.12-28.25-26.41-41.78,9.44,39.08,27.83,74.14,50.57,108a2,2,0,0,1-2.22,2.9c-9.68-2.6-20-4.8-30.06-7.61,20.58,23.53,32.66,55.4,34.53,85.79.12,2-2.73,2.57-3.7,1-9-15-19.1-29.83-32.57-41.23-1.69-1.46-3.44-2.84-5.18-4.19,6.92,10.47,11.72,22.73,15,33.8,7.76,25.91,12.34,55.4,7.58,82.34-.42,2.14-3.2,1.6-3.85,0-9.48-23.78-15.93-49.33-28.51-71.59,12.28,37,13,77.85,4.53,115.67-5.24,23.42-14,45.7-25.17,66.94-10.69,20.4-23.66,40-42.84,53.3-1.33.92-2.87-.36-3-1.7-2.61-30.5,6.69-61,1.21-91.31-2.1-11.46-4.41-23.47-8.41-34.76a175.27,175.27,0,0,1-1.71,35.93c-4.06,27-13.68,55.55-35.18,73.73-1.21,1-3.46.46-3.37-1.39.77-13.78,1.48-27.46,1.51-41a191.34,191.34,0,0,1-13.24,29.17c-18.77,33.84-45.3,65.84-78.25,86.71-1.6,1-3.11-.67-2.87-2.25,3.64-25.45,4.8-55.92,15.07-81.16-1.07,1.2-2.1,2.39-3.11,3.62a196.23,196.23,0,0,0-25,38.49,187.09,187.09,0,0,0-15.33,47.41c-2.82,15-5.51,29.91-11.28,44.12-.77,1.88-4.12,1.88-3.88-.54a100.56,100.56,0,0,0-3.56-39c4.09,29.83.33,63.91-19.77,85.94-1.07,1.18-3.56.32-3.38-1.41a265.65,265.65,0,0,0,.42-59c-8.15,32.62-26.32,62.78-52.79,83.89-17.35,13.84-37.72,25.06-58,34-17.44,7.7-38.94,16.69-58.27,11.17a2,2,0,0,1-.86-3.31c24.37-26.08,47.58-53,56.91-87.41-15.34,26.57-37,52.23-66.86,61a2,2,0,0,1-1.92-3.3,190.65,190.65,0,0,0,25.49-33.31,204.87,204.87,0,0,1-17.76,17.29c-20.4,17.78-43.29,33.06-69.2,41.44-28.36,9.19-57.37,10.82-87,11.11-28.25.25-56.88-.8-84-9.49a2,2,0,0,1-.47-3.62c10.92-7.11,22.2-14,32.42-22.08-43.67,21.26-94.12,29.15-141.7,19.75-2.25-.43-1.63-3.83.53-3.86,21.61-.43,43.94-8.41,63.57-19.68-40.83,9.8-83.91,7.33-125.43-1.61-29.31-6.3-58-16.86-87.92-20s-57.8,2.44-84.56,16.28a2,2,0,0,1-2.38-3.11c15.11-17.19,34.53-27.67,55-36.89-21.24-.92-42,7.09-62,13.5-1.83.59-3.46-2-1.92-3.3,28.1-23.79,62-32.95,98-34.06-17.93-11.21-38.92-13.72-60-13-2.37.06-2.49-3.15-.52-3.87,16.6-6.18,34.17-8.83,51.1-13.87a43.27,43.27,0,0,0-17.3-9.51,104.16,104.16,0,0,0-17.37,1.25c-28.3,5.22-54.56,16.21-80.28,28.51a225.83,225.83,0,0,1,46.27-3.33c3.7.13-.45,6.63-2.2,7.25-24,8.85-45.53,16.49-62,38.37a189.88,189.88,0,0,0-21.76,37.28c-2,4.41-12.41,25.1-3.76,11.25,6.45-10.39,30.8-32.3,44.1-35.47,2.88-.7,1.82,3.71.87,4.81-16.17,19.27-27.53,41-32.75,65.68-1.71,8.09-3.64,37-4.11,38,12-24.39,27.71-40.71,52.33-52.58,67-32.29,145.71-27.18,216.56-7.83,6.31-2.64,12.73-5,19.13-7.11-11.06,6.67-21.91,13.71-32.82,20.61a5.36,5.36,0,0,0-1.64,1.56,135.65,135.65,0,0,0-18.73,14c-13.9,12.44,8.69,1,13.13.39,14.77-2,31-5.61,45.86-5.67,54.77-.2,98.56,28.89,149.87,42.91,119.35,32.62,250.36,28.45,361.86-27.46,3.5-.92,7-1.87,10.51-2.77a4.46,4.46,0,0,1-1.54,2.91c-1.8,1.11-3.7,2.12-5.5,3.22,31.94,3,61.43-15.44,75.35-42.11,0-.14.06-.29.06-.44a81.92,81.92,0,0,0,9.88-12.7,7.45,7.45,0,0,0,1.25,1.57c-.06.18-.06.31-.12.46a146,146,0,0,1-5.77,13.48c-.27,12.48,1.92,24.62,8,35.13-3.64-23.17,12.49-49,27.83-69.46,3.38-2.59,6.72-5.16,10.07-7.75-6.78,9.69-14,20.19-19.45,31.14,9-2.8,17.46-5.36,25.13-9.16,1.22-1.48,2.84-2.61,4.24-2.49h.2a52,52,0,0,0,17.56-17,114.36,114.36,0,0,0,7.52-14c2-1.5,4-3,5.89-4.55-4.94,12.68-11.46,24.77-20.25,34.36,29.28-8.36,56.34-57.09,62.29-77.8a413.29,413.29,0,0,0,13.15-68.72,211,211,0,0,1,.65,33.26c-2.19,16.58-5.68,33-11.6,48.16,0,0,.11-.09.17-.12,54.57-19.81,114.17-66,132.58-123.6a232.56,232.56,0,0,0,11.46-30.17c0,3.28-.12,6.5-.44,9.71,3.61,12.5,10.27,33.8,21.32,43-6.22-13.18-10.93-27.5-9.39-42,2.31-21.51,12.49-45.22,9.83-66.72-.15-1.24,2.31-3.64,2.64-1.82,3.13,16.85-2.85,34.05-4.92,50.79-.36,2.8-.53,5.51-.65,8.19,30-33.71,22.53-72.43,11.16-111.55-.38-8.91-.27-17.86-.77-26.78A1.51,1.51,0,0,1,1880.67,2194.18Z" transform="translate(-29.45 -40.6)"/></g></g></svg>